<?xml version="1.0" standalone="no"?>
<!DOCTYPE svg PUBLIC "-//W3C//DTD SVG 20010904//EN"
 "http://www.w3.org/TR/2001/REC-SVG-20010904/DTD/svg10.dtd">
<svg version="1.0" xmlns="http://www.w3.org/2000/svg"
 width="300.000000pt" height="112.000000pt" viewBox="0 0 300.000000 112.000000"
 preserveAspectRatio="xMidYMid meet">
<metadata>
Created by potrace 1.10, written by Peter Selinger 2001-2011
</metadata>
<g transform="translate(0.000000,112.000000) scale(0.050000,-0.050000)"
fill="#000000" stroke="none">
<path d="M845 2190 c-369 -81 -706 -416 -794 -792 -256 -1084 1038 -1816 1821
-1030 767 771 45 2054 -1027 1822z m604 -337 l118 -54 -88 -90 c-63 -64 -103
-89 -145 -89 -77 0 -167 -93 -186 -192 -20 -111 -231 -348 -310 -348 -131 0
-222 -83 -227 -208 -1 -41 -27 -96 -70 -151 l-68 -86 -36 43 c-309 383 -65
1058 443 1224 112 37 443 8 569 -49z m360 -348 c336 -694 -345 -1412 -1048
-1103 l-88 39 88 90 c49 50 120 106 159 125 43 21 86 64 111 114 85 167 176
265 128 137 -75 -196 210 -361 362 -210 183 184 -19 478 -247 360 -31 -16 -24
-1 25 50 38 40 88 73 110 73 84 0 191 120 191 213 0 33 133 187 160 187 7 0
29 -34 49 -75z"/>
<path d="M696 1579 c-164 -123 -80 -399 122 -399 223 0 320 264 147 401 -67
52 -197 51 -269 -2z"/>
<path d="M2280 1790 c0 -17 18 -30 40 -30 38 0 40 -13 40 -260 0 -247 -2 -260
-40 -260 -22 0 -40 -13 -40 -30 0 -48 367 -42 460 6 203 107 203 461 0 568
-93 48 -460 54 -460 6z m418 -79 c25 -25 32 -73 32 -211 0 -207 -17 -237 -147
-254 l-83 -11 0 265 0 265 83 -11 c45 -6 97 -25 115 -43z"/>
<path d="M2980 1790 c0 -16 14 -30 30 -30 25 0 30 -42 30 -260 0 -218 -5 -260
-30 -260 -16 0 -30 -13 -30 -30 0 -25 42 -30 260 -30 l260 0 0 101 c0 99 -2
101 -54 95 -46 -5 -55 -16 -55 -66 -1 -57 -5 -60 -94 -66 l-93 -6 -7 121 -7
121 65 0 c44 0 65 -9 65 -30 0 -16 14 -30 30 -30 22 0 30 23 30 90 0 91 -41
127 -68 59 -12 -32 -114 -35 -113 -4 1 8 1 56 1 105 l0 90 90 0 c87 0 90 -2
90 -61 0 -110 108 -77 116 36 l6 85 -261 0 c-219 0 -261 -5 -261 -30z"/>
<path d="M3580 1790 c0 -16 14 -30 30 -30 25 0 30 -42 30 -260 0 -218 -5 -260
-30 -260 -16 0 -30 -13 -30 -30 0 -23 24 -30 100 -30 76 0 100 7 100 30 0 17
-13 30 -30 30 -25 0 -30 39 -29 235 0 273 -10 276 179 -62 130 -231 130 -232
205 -233 l75 0 0 290 c0 244 5 290 30 290 17 0 30 14 30 30 0 23 -26 30 -110
30 -109 0 -152 -33 -70 -54 37 -10 40 -27 40 -213 l0 -203 -37 60 c-20 33 -79
139 -131 235 l-95 175 -129 0 c-100 0 -128 -6 -128 -30z"/>
<path d="M4300 1790 c0 -17 18 -30 40 -30 38 0 40 -13 40 -260 0 -247 -2 -260
-40 -260 -22 0 -40 -13 -40 -30 0 -24 29 -30 140 -30 111 0 140 6 140 30 0 17
-13 30 -30 30 -53 0 -43 512 10 526 94 24 34 54 -110 54 -120 0 -150 -6 -150
-30z"/>
<path d="M4874 1805 c-5 -8 -47 -132 -94 -275 -46 -143 -97 -270 -112 -282
-55 -44 -29 -68 72 -68 100 0 149 49 64 64 -31 5 -34 16 -20 71 27 104 218
100 251 -5 19 -63 17 -70 -17 -70 -21 0 -38 -13 -38 -30 0 -24 29 -30 140 -30
111 0 140 6 140 30 0 17 -13 30 -29 30 -19 0 -60 97 -124 290 l-96 290 -64 0
c-36 0 -68 -7 -73 -15z m83 -241 l39 -124 -89 0 c-49 0 -85 7 -81 15 5 8 24
68 43 132 39 137 38 138 88 -23z"/>
<path d="M5300 1790 c0 -16 14 -30 30 -30 25 0 30 -42 30 -260 0 -218 -5 -260
-30 -260 -16 0 -30 -13 -30 -30 0 -25 41 -30 250 -30 l250 0 0 101 c0 129
-104 150 -116 24 -6 -61 -11 -65 -85 -65 l-79 0 0 260 c0 218 5 260 30 260 17
0 30 14 30 30 0 24 -29 30 -140 30 -111 0 -140 -6 -140 -30z"/>
<path d="M2300 960 c0 -11 14 -20 30 -20 53 0 43 -460 -10 -474 -102 -27 -28
-50 138 -43 309 12 438 285 231 492 -66 66 -389 104 -389 45z m290 -40 c149
-57 142 -384 -11 -437 -157 -55 -159 -52 -159 217 l0 240 59 0 c32 0 82 -9
111 -20z"/>
<path d="M2840 962 c0 -9 16 -21 35 -27 52 -13 51 -461 -1 -471 -73 -15 -28
-44 66 -44 55 0 100 9 100 20 0 11 -13 20 -30 20 -25 0 -30 40 -30 240 0 200
5 240 30 240 17 0 30 9 30 20 0 11 -45 20 -100 20 -55 0 -100 -8 -100 -18z"/>
<path d="M3223 720 c-47 -143 -94 -260 -104 -260 -11 0 -19 -9 -19 -20 0 -11
36 -20 80 -20 44 0 80 9 80 20 0 11 -13 20 -30 20 -35 0 -37 18 -10 89 27 73
228 78 247 6 20 -71 15 -95 -17 -95 -16 0 -30 -9 -30 -20 0 -11 45 -20 100
-20 94 0 132 23 74 46 -15 5 -65 123 -113 262 -118 349 -140 348 -258 -8z
m132 -76 c-103 -8 -105 -5 -64 120 50 155 52 156 99 15 l44 -129 -79 -6z"/>
<path d="M3660 960 c0 -11 14 -20 30 -20 25 0 30 -40 30 -240 0 -200 -5 -240
-30 -240 -16 0 -30 -9 -30 -20 0 -12 80 -20 200 -20 l200 0 0 80 c0 58 -8 80
-30 80 -20 0 -30 -20 -30 -60 0 -59 -2 -60 -100 -60 l-100 0 0 240 c0 200 5
240 30 240 17 0 30 9 30 20 0 11 -45 20 -100 20 -55 0 -100 -9 -100 -20z"/>
</g>
</svg>
