<?xml version="1.0" standalone="no"?>
<!DOCTYPE svg PUBLIC "-//W3C//DTD SVG 20010904//EN"
 "http://www.w3.org/TR/2001/REC-SVG-20010904/DTD/svg10.dtd">
<svg version="1.0" xmlns="http://www.w3.org/2000/svg"
 width="300.000000pt" height="96.000000pt" viewBox="0 68 300.000000 96.000000"
 preserveAspectRatio="xMidYMid meet">
<metadata>
Created by potrace 1.10, written by Peter Selinger 2001-2011
</metadata>
<g transform="translate(0.000000,232.000000) scale(0.100000,-0.100000)"
fill="#000000" stroke="none">
<path d="M2349 1610 c-80 -32 -111 -53 -170 -117 -155 -166 -174 -403 -48
-592 74 -111 162 -169 301 -197 76 -16 96 -17 160 -6 101 17 187 60 259 129
218 208 182 580 -72 744 -116 74 -303 91 -430 39z m286 -4 c181 -48 308 -192
336 -379 13 -90 -3 -181 -47 -269 -38 -76 -129 -162 -211 -201 -60 -28 -81
-32 -171 -35 -88 -4 -112 -1 -165 18 -259 94 -377 378 -260 627 51 110 181
214 300 242 58 14 162 12 218 -3z"/>
<path d="M2410 1574 c-154 -41 -271 -173 -301 -338 -29 -158 49 -336 188 -424
115 -73 281 -83 406 -25 87 41 159 113 200 201 30 63 32 73 32 182 0 103 -3
121 -27 172 -31 67 -100 145 -167 187 -86 56 -222 74 -331 45z m268 -47 c87
-40 162 -115 203 -201 25 -53 29 -72 29 -152 0 -87 -13 -154 -30 -154 -12 0
-20 70 -14 138 4 52 1 70 -15 98 -12 19 -21 45 -21 58 0 35 -54 112 -107 150
-63 47 -110 60 -211 59 -68 -1 -94 -6 -136 -27 -86 -42 -156 -123 -156 -179 0
-16 -9 -40 -20 -54 -17 -22 -20 -41 -20 -127 0 -55 -4 -107 -9 -115 -15 -24
-35 58 -36 144 0 102 24 177 77 239 44 52 139 126 161 126 7 0 17 4 23 9 28
28 215 20 282 -12z m-23 -56 c103 -45 176 -153 130 -191 -12 -10 -24 -4 -71
39 -118 108 -282 105 -392 -8 -44 -46 -57 -50 -72 -22 -30 58 89 178 200 202
51 11 158 1 205 -20z m-30 -130 c22 -10 64 -38 92 -62 44 -36 53 -50 53 -77 0
-29 -2 -32 -24 -26 -36 9 -65 -12 -86 -62 -11 -24 -21 -44 -23 -44 -1 0 -4 14
-5 32 -3 31 -26 68 -44 68 -4 0 -17 -9 -28 -20 -11 -11 -20 -19 -21 -17 0 1
-6 22 -12 47 -9 35 -17 46 -34 48 -17 2 -26 -3 -32 -20 -5 -13 -23 -38 -40
-57 l-31 -33 -23 28 c-17 19 -33 27 -55 27 -28 0 -32 4 -32 28 0 27 50 84 112
128 59 41 156 46 233 12z m-379 -157 c2 -63 33 -204 55 -246 13 -24 -1 -28
-39 -12 -44 18 -68 74 -54 124 6 19 8 63 5 97 -6 69 2 116 20 110 8 -2 12 -29
13 -73z m590 50 c4 -14 3 -56 0 -93 -4 -39 -3 -79 3 -94 16 -42 -6 -98 -48
-119 -19 -9 -37 -15 -41 -13 -4 3 6 49 22 102 21 69 29 119 29 171 0 55 4 72
14 72 8 0 18 -12 21 -26z m-332 -40 c3 -9 6 -41 6 -72 1 -50 2 -55 14 -39 19
24 26 21 26 -12 0 -66 15 -64 20 3 7 90 26 99 36 17 5 -51 9 -59 21 -50 21 18
28 1 8 -21 -25 -28 -30 -26 -42 18 -10 35 -11 32 -12 -40 0 -42 -6 -80 -11
-83 -14 -9 -30 39 -30 93 -1 37 -3 43 -11 30 -18 -32 -29 -19 -30 35 -1 41 -3
47 -9 27 -4 -14 -8 -48 -9 -77 -1 -28 -6 -55 -11 -58 -13 -8 -18 8 -23 67 -3
47 -17 80 -17 42 0 -23 -17 -51 -25 -42 -7 7 24 106 36 113 4 3 11 -11 14 -32
11 -67 13 -69 14 -17 2 93 19 140 35 98z m-170 -50 c18 -7 69 -163 64 -196 -2
-11 -11 -26 -20 -32 -32 -20 -51 6 -81 104 -25 87 -26 95 -10 112 18 20 23 21
47 12z m424 -6 c17 -17 15 -40 -13 -133 -26 -83 -40 -101 -75 -90 -31 10 -31
35 -4 124 30 102 59 132 92 99z m-217 -235 c20 -23 39 -14 60 30 10 23 18 35
15 27 -5 -22 21 -68 41 -74 10 -2 44 -3 76 -2 31 1 57 0 57 -3 0 -9 -90 -65
-130 -82 -46 -19 -222 -19 -270 0 -39 15 -130 73 -130 82 0 3 28 4 62 2 70 -3
93 10 104 60 6 29 7 30 20 12 14 -19 15 -18 42 8 l27 27 8 -36 c4 -21 12 -43
18 -51z"/>
<path d="M915 1520 c-8 -13 4 -32 16 -25 5 4 9 -41 9 -109 0 -96 -3 -116 -15
-116 -8 0 -15 -7 -15 -15 0 -11 11 -15 40 -15 22 0 43 -1 47 -2 4 -2 9 5 11
15 2 10 -3 17 -12 17 -13 0 -16 12 -16 60 0 56 2 60 27 66 42 11 58 -6 61 -70
2 -45 0 -56 -13 -56 -8 0 -15 -6 -15 -14 0 -9 15 -15 45 -18 38 -3 45 0 45 14
0 10 -7 18 -15 18 -12 0 -15 14 -15 64 0 77 -16 100 -64 93 -17 -2 -38 -7 -47
-11 -13 -6 -15 2 -11 54 l4 60 -30 0 c-17 0 -34 -4 -37 -10z"/>
<path d="M1360 1509 c0 -15 5 -19 15 -15 13 5 15 -13 15 -124 l0 -130 38 -2
c70 -3 87 1 115 32 31 34 35 75 12 119 -21 41 -72 54 -116 31 -18 -10 -18 -8
-12 50 l6 60 -37 0 c-30 0 -36 -3 -36 -21z m154 -125 c16 -16 21 -59 10 -89
-9 -24 -49 -36 -79 -25 -22 8 -25 15 -25 58 0 26 5 53 12 60 17 17 64 15 82
-4z"/>
<path d="M1600 1510 c0 -11 7 -20 15 -20 12 0 15 -19 15 -110 0 -93 -2 -110
-16 -110 -9 0 -14 -7 -12 -17 2 -12 14 -16 47 -16 46 0 69 20 35 29 -18 5 -19
15 -15 135 l3 129 -36 0 c-29 0 -36 -4 -36 -20z"/>
<path d="M0 1505 c0 -8 7 -15 15 -15 12 0 15 -19 15 -110 0 -91 -3 -110 -15
-110 -8 0 -15 -6 -15 -14 0 -12 22 -15 105 -18 l105 -3 0 43 c0 30 -4 42 -14
42 -8 0 -16 -10 -18 -22 -3 -20 -10 -23 -60 -26 l-58 -3 0 111 c0 91 3 110 15
110 8 0 15 7 15 15 0 11 -12 15 -45 15 -33 0 -45 -4 -45 -15z"/>
<path d="M257 1423 c-33 -9 -12 -28 27 -25 38 4 66 -11 66 -34 0 -9 -12 -14
-38 -14 -50 0 -82 -23 -82 -60 0 -45 66 -80 96 -50 6 6 21 6 42 1 28 -8 32 -7
32 10 0 10 -4 19 -10 19 -6 0 -10 28 -10 63 0 49 -4 68 -18 80 -18 16 -65 20
-105 10z m93 -118 c0 -30 -32 -49 -67 -40 -18 4 -23 11 -21 28 2 16 12 24 38
28 19 4 38 7 43 8 4 0 7 -10 7 -24z"/>
<path d="M430 1415 c0 -8 7 -15 15 -15 12 0 15 -13 15 -61 0 -33 4 -69 10 -79
12 -22 51 -33 81 -22 13 5 38 6 56 2 28 -7 33 -5 33 11 0 10 -4 19 -10 19 -6
0 -10 33 -10 80 l0 80 -35 0 c-24 0 -35 -5 -35 -15 0 -8 7 -15 15 -15 12 0 15
-14 15 -64 0 -60 -1 -64 -25 -68 -13 -3 -34 2 -46 10 -19 13 -21 22 -17 83 l4
69 -33 0 c-23 0 -33 -5 -33 -15z"/>
<path d="M720 1410 c-37 -37 -38 -120 -2 -153 25 -22 67 -30 91 -17 18 9 21 8
21 -9 0 -41 -67 -60 -106 -30 -12 10 -24 2 -24 -17 0 -14 51 -34 86 -34 13 0
35 10 50 23 25 22 27 29 32 139 l5 116 -67 1 c-53 1 -70 -3 -86 -19z m108 -72
c3 -54 1 -59 -22 -69 -20 -10 -30 -9 -51 5 -20 13 -25 24 -25 59 0 53 15 69
60 65 l35 -3 3 -57z"/>
<path d="M1187 1423 c-33 -9 -12 -28 27 -25 38 4 66 -11 66 -34 0 -10 -13 -14
-40 -14 -70 0 -108 -69 -58 -104 25 -18 64 -21 72 -7 3 5 24 7 46 4 33 -5 40
-3 40 11 0 9 -7 16 -15 16 -12 0 -15 14 -15 64 0 45 -5 69 -16 80 -15 15 -67
20 -107 9z m91 -120 c-4 -36 -50 -55 -74 -32 -21 22 -7 47 29 52 18 2 36 5 40
5 5 1 7 -10 5 -25z"/>
<path d="M1755 1405 c-20 -19 -25 -34 -25 -74 0 -43 4 -53 31 -75 33 -28 64
-32 104 -14 32 15 35 43 3 31 -38 -12 -78 -7 -93 13 -28 37 -19 44 55 44 67 0
70 1 70 24 0 13 -9 35 -21 50 -28 36 -89 37 -124 1z m103 -34 c3 -19 -1 -21
-47 -21 -53 0 -60 5 -38 32 26 33 80 27 85 -11z"/>
<path d="M814 1111 c-10 -10 -3 -31 11 -31 12 0 15 -19 15 -110 0 -93 -2 -109
-15 -104 -10 4 -15 0 -15 -15 0 -20 5 -21 110 -21 l110 0 0 45 c0 38 -3 45
-19 45 -14 0 -21 -8 -23 -27 -3 -27 -6 -28 -56 -28 l-53 0 -2 108 c-2 98 0
107 16 107 12 0 17 6 15 16 -2 12 -15 17 -46 18 -24 0 -46 -1 -48 -3z"/>
<path d="M1470 1105 c-10 -11 -10 -19 -2 -27 15 -15 44 -2 40 19 -4 23 -22 27
-38 8z"/>
<path d="M1030 1018 c0 -6 6 -19 14 -27 7 -9 25 -48 40 -87 28 -74 28 -124 0
-124 -8 0 -14 -8 -14 -19 0 -15 8 -18 40 -18 33 0 40 3 40 19 0 14 -5 18 -16
14 -11 -4 -15 -2 -11 6 54 141 84 208 95 208 6 0 12 9 12 19 0 16 -7 20 -40
19 -33 0 -40 -4 -40 -20 0 -10 5 -16 10 -13 14 9 12 -16 -4 -56 -7 -19 -16
-43 -20 -54 -7 -16 -12 -9 -30 40 -17 48 -19 62 -9 68 28 17 14 37 -27 37 -24
0 -40 -5 -40 -12z"/>
<path d="M1265 1020 c-8 -13 4 -32 16 -25 5 4 9 -23 9 -64 0 -50 -4 -70 -12
-68 -6 1 -14 -6 -16 -15 -3 -15 4 -18 47 -18 45 0 51 3 51 20 0 14 -6 20 -17
18 -14 -3 -16 5 -14 52 3 63 16 87 37 69 20 -17 43 -4 37 20 -6 24 -41 28 -62
9 -11 -10 -14 -10 -18 0 -6 14 -49 16 -58 2z"/>
<path d="M1440 1010 c0 -16 5 -20 15 -16 12 4 15 -6 15 -64 0 -58 -3 -68 -15
-64 -10 4 -15 0 -15 -15 0 -18 6 -21 45 -21 38 0 45 3 45 20 0 13 -5 18 -16
13 -13 -5 -15 6 -13 78 l2 84 -31 3 c-27 3 -32 0 -32 -18z"/>
<path d="M1603 1015 c-32 -23 -47 -77 -33 -120 22 -67 94 -87 147 -41 24 21
26 25 11 31 -10 4 -24 0 -33 -9 -37 -37 -95 -6 -95 50 0 60 58 98 90 59 18
-21 50 -19 50 3 0 35 -98 55 -137 27z"/>
<path d="M1796 1011 c-29 -32 -17 -63 38 -91 26 -14 48 -28 47 -32 0 -5 -1
-12 -1 -18 0 -16 -60 -12 -66 5 -9 21 -44 19 -44 -2 0 -40 103 -58 134 -24 31
34 17 63 -42 91 -57 27 -66 53 -19 58 18 2 29 -2 33 -12 8 -22 44 -21 44 2 0
38 -94 56 -124 23z"/>
</g>
</svg>
