<?xml version="1.0" encoding="UTF-8"?>
<svg width="71.412" height="50" version="1.1" viewBox="0 0 71.412065 50" xmlSpace="preserve" xmlns="http://www.w3.org/2000/svg" xmlnsCc="http://creativecommons.org/ns#" xmlnsDc="http://purl.org/dc/elements/1.1/" xmlnsRdf="http://www.w3.org/1999/02/22-rdf-syntax-ns#"><metadata><rdfRDF><ccWork rdfAbout=""><dcFormat>image/svg+xml</dcFormat><dcType rdfResource="http://purl.org/dc/dcmitype/StillImage"/><dcTitle/></ccWork></rdfRDF></metadata><style type="text/css">
	.st0{fill:#FF0000;}
	.st1{fill:#FFFFFF;}
	.st2{fill:#282828;}
</style><g transform="scale(.58824)"><path class="st0" d="m118.9 13.3c-1.4-5.2-5.5-9.3-10.7-10.7-9.5-2.6-47.5-2.6-47.5-2.6s-38 0-47.5 2.5c-5.1 1.4-9.3 5.6-10.7 10.8-2.5 9.5-2.5 29.2-2.5 29.2s0 19.8 2.5 29.2c1.4 5.2 5.5 9.3 10.7 10.7 9.6 2.6 47.5 2.6 47.5 2.6s38 0 47.5-2.5c5.2-1.4 9.3-5.5 10.7-10.7 2.5-9.5 2.5-29.2 2.5-29.2s0.1-19.8-2.5-29.3z" fill="#f00"/><polygon class="st1" points="80.2 42.5 48.6 24.3 48.6 60.7" fill="#fff"/></g></svg>
