<?xml version="1.0" encoding="UTF-8"?>
<svg version="1.0" viewBox="0 0 360 45" xmlns="http://www.w3.org/2000/svg" xmlnsCc="http://creativecommons.org/ns#" xmlnsDc="http://purl.org/dc/elements/1.1/" xmlnsRdf="http://www.w3.org/1999/02/22-rdf-syntax-ns#">
<metadata>
<rdfRDF>
<ccWork rdfAbout="">
<dcFormat>image/svg+xml</dcFormat>
<dcType rdfResource="http://purl.org/dc/dcmitype/StillImage"/>
<dcTitle>J. P. Morgan Chase & Co. Logo</dcTitle>
<dcDate>2008.11.23</dcDate>
<dcSource>Frank Trampe</dcSource>
<dcCreator>
<ccAgent>
<dcTitle>J. P. Morgan Chase & Co.</dcTitle>
</ccAgent>
</dcCreator>
</ccWork>
</rdfRDF>
</metadata>
<path d="m281.22 11.625c-1.2698 0-2.3162 0.42812-3.1562 1.2812-0.83891 0.85422-1.25 1.8169-1.25 2.9062 0 1.3825 0.61436 2.9188 1.8438 4.625-2.0409 1.3628-3.4344 2.5116-4.1562 3.4062-0.71968 0.89688-1.0625 1.9934-1.0625 3.3125 0 1.1539 0.29641 2.1519 0.875 3.0312 0.5775 0.88047 1.2989 1.5758 2.2188 2.0625 0.91984 0.48672 1.8967 0.75 2.9062 0.75 2.0584 0 4.0254-1.0397 5.875-3.0938 1.5553 2.0541 3.3576 3.0938 5.4062 3.0938 0.945 0 1.7803-0.28313 2.5-0.8125 0.7186-0.52828 1.1842-1.2341 1.4062-2.0938h-0.75c-0.53484 0.94391-1.2947 1.4375-2.2812 1.4375-0.72516 0-1.3903-0.22422-2.0312-0.65625-0.63985-0.43094-1.533-1.4536-2.6562-3.0625 0.4714-0.62672 0.99812-1.5998 1.5625-2.9375 0.67157-1.6198 1.3344-2.7273 1.9688-3.3125 0.63547-0.58625 1.3678-0.98906 2.2188-1.2188v-0.75h-6.75v0.75c1.6526 0.18812 2.4688 0.86047 2.4688 2.0625 0 0.50094-0.18453 1.2012-0.53125 2.0938-0.34562 0.89359-0.80907 1.757-1.4062 2.5938-1.6603-2.3559-3.4131-4.7881-5.2812-7.3125 3.0155-1.517 4.5-3.0742 4.5-4.6875 0-1.0369-0.43155-1.8925-1.3438-2.5312-0.91328-0.63875-1.9606-0.9375-3.0938-0.9375zm28.688 0.09375c-1.8364 0-3.5258 0.41938-5.0625 1.2812s-2.7352 2.1892-3.5938 3.9688c-0.8575 1.7784-1.2812 3.6728-1.2812 5.6875 0 3.068 0.91967 5.5414 2.7812 7.4062 1.8605 1.8648 4.2853 2.7812 7.2188 2.7812 2.7759 0 5.0577-1.0155 6.8438-3.0312 0.4725 0.62234 0.78609 1.3414 0.96875 2.1562h0.6875v-7.1562h-0.6875c-0.12031 1.1823-0.52359 2.4209-1.1875 3.6875-0.66282 1.2677-1.5511 2.157-2.6875 2.6875-1.1397 0.53047-2.2544 0.78125-3.3438 0.78125-2.0366 0-3.7556-0.80672-5.125-2.4375-1.3661-1.6319-2.0313-3.9709-2.0312-7.0312 0-3.232 0.62265-5.733 1.875-7.4688 1.2545-1.738 2.9341-2.5938 5.0625-2.5938 1.7369 0 3.3028 0.54438 4.6875 1.625 1.3847 1.0806 2.3005 2.98 2.75 5.7188h0.6875l-0.1875-7.7188h-0.6875c-0.09296 0.91109-0.34046 1.8064-0.78125 2.6562-0.60812-0.75797-1.5497-1.4391-2.7812-2.0625-1.2338-0.62344-2.6091-0.9375-4.125-0.9375zm-120 0.0625c-1.8364 0-3.5258 0.41938-5.0625 1.2812-1.5378 0.86188-2.7352 2.1892-3.5938 3.9688-0.85859 1.7784-1.2812 3.6717-1.2812 5.6875 0 3.0669 0.91969 5.5403 2.7812 7.4062 1.8594 1.8648 4.2519 2.7812 7.1875 2.7812 2.7738 0 5.0588-0.98313 6.8438-3 0.47469 0.62453 0.81953 1.3403 1 2.1562h0.6875v-7.1875h-0.6875c-0.12031 1.1834-0.5225 2.4209-1.1875 3.6875-0.66282 1.2677-1.5489 2.157-2.6875 2.6875-1.1397 0.53047-2.2555 0.8125-3.3438 0.8125-2.0366 0-3.7567-0.83906-5.125-2.4688-1.3683-1.6319-2.0312-3.9698-2.0312-7.0312 0-3.232 0.62157-5.7017 1.875-7.4375 1.2534-1.7369 2.9362-2.625 5.0625-2.625 1.7391 0 3.305 0.54438 4.6875 1.625 1.3836 1.0806 2.2994 2.98 2.75 5.7188h0.6875l-0.1875-7.6875h-0.6875c-0.09187 0.91109-0.37171 1.7752-0.8125 2.625-0.60812-0.75797-1.5162-1.4402-2.75-2.0625-1.2305-0.62344-2.608-0.9375-4.125-0.9375zm-148.66 0.0625c-1.1495 0-2.7584 0.045156-4.8125 0.125l-2.5625 0.09375v0.6875h0.375c1.0402 0 1.7184 0.10078 2.0312 0.28125 0.31391 0.18156 0.50297 0.49625 0.59375 0.96875s0.15625 1.5309 0.15625 3.1562v10c0 1.7073-0.065468 2.8142-0.15625 3.2812s-0.28703 0.81031-0.625 1.0312c-0.33797 0.22094-0.96547 0.3125-1.8438 0.3125h-0.53125v0.6875h9.4062v-0.6875h-0.6875c-0.91875 0-1.5414-0.10094-1.875-0.34375-0.33359-0.24172-0.54953-0.62625-0.625-1.125-0.076562-0.49875-0.093748-1.5441-0.09375-3.1562v-4.3125h2.25c2.3428 0 3.9766-0.21547 4.9062-0.65625 0.93078-0.44188 1.6262-1.0844 2.125-1.9375 0.49766-0.85422 0.75-1.8542 0.75-2.9688 0-1.2841-0.36312-2.3442-1.0938-3.1875-0.73062-0.84328-1.6695-1.4186-2.8125-1.75-1.143-0.33141-2.7608-0.5-4.875-0.5zm-19.344 0.21875v0.6875h0.46875c1.0358 0 1.6938 0.10078 2 0.28125 0.30734 0.18047 0.52984 0.49844 0.625 0.96875 0.095156 0.47141 0.125 1.5331 0.125 3.1562v6.9375c0 2.2739-0.057968 3.9197-0.21875 4.9062-0.15859 0.98875-0.65766 1.8362-1.4375 2.5625-0.77984 0.72625-1.7353 1.0937-2.875 1.0938-0.56 0-1.0256-0.10188-1.4062-0.28125-0.37844-0.17938-0.5625-0.43063-0.5625-0.75 0-0.12031 0.045782-0.29172 0.15625-0.53125 0.12141-0.27016 0.1875-0.53078 0.1875-0.78125 0-0.42-0.13891-0.77266-0.4375-1.0625-0.2975-0.29094-0.68094-0.4375-1.125-0.4375-0.43422 0-0.79516 0.17625-1.0938 0.5-0.2975 0.32375-0.4375 0.71391-0.4375 1.1875 0 0.78531 0.41984 1.4614 1.25 2.0312 0.83234 0.56875 1.9902 0.84375 3.5312 0.84375 1.3716 0 2.5892-0.22594 3.625-0.6875 1.0358-0.46266 1.8798-1.1123 2.5-1.9688 0.62016-0.8575 0.98828-1.7528 1.125-2.6562 0.13453-0.90234 0.1875-2.2105 0.1875-3.9375v-6.9688c0-1.6953 0.055624-2.767 0.15625-3.2188 0.099532-0.45172 0.31437-0.77344 0.625-0.9375 0.30953-0.16734 0.96687-0.25 1.9688-0.25h0.5v-0.6875h-9.4375zm30.875 0v0.6875h0.5625c1.0402 0 1.6916 0.10078 2 0.28125 0.30844 0.18156 0.52984 0.49625 0.625 0.96875 0.09625 0.4725 0.125 1.5298 0.125 3.1562v8.875c0 1.6866-0.034842 2.8453-0.15625 3.4688-0.12031 0.62234-0.48 1.1694-1.0312 1.5938-0.55016 0.42656-1.2456 0.63828-2.125 0.6875v0.6875h7.3438v-0.6875c-0.94391-0.060156-1.6658-0.30375-2.1875-0.75-0.52391-0.44625-0.83797-0.96969-0.9375-1.5625-0.10062-0.59281-0.15625-1.7075-0.15625-3.3438v-11.938l8.125 18.281h0.71875l8.0312-18.281v13c0 1.7073-0.029845 2.783-0.125 3.25-0.095157 0.46703-0.31828 0.80922-0.65625 1.0312-0.33906 0.22094-0.94296 0.3125-1.8125 0.3125h-0.71875v0.6875h9.8125v-0.6875h-0.90625c-0.92531 0-1.5491-0.10203-1.875-0.34375-0.32812-0.24062-0.54516-0.59719-0.625-1.0938-0.080938-0.49656-0.125-1.5808-0.125-3.1875v-10c0-1.6964 0.049059-2.7659 0.15625-3.2188 0.10391-0.45172 0.31328-0.77234 0.625-0.9375 0.31172-0.16516 0.99484-0.25 2-0.25h0.75v-0.6875h-6.3125l-7.4062 16.906-7.5-16.906h-6.2188zm228.5 0.34375c0.76672 0 1.3734 0.25953 1.8438 0.78125 0.46703 0.52281 0.71874 1.1847 0.71875 2.0312 0 1.4197-1.0639 2.747-3.1562 3.9688-1.2852-1.7642-1.9063-3.1638-1.9062-4.1875 0-0.74156 0.22813-1.3428 0.6875-1.8438 0.45828-0.49984 1.0524-0.75 1.8125-0.75zm-239.72 0.15625c1.8616 0 3.2022 0.39672 4.0312 1.1875 0.82906 0.78969 1.25 2.0278 1.25 3.7188 0 1.108-0.2364 2.0578-0.71875 2.8125-0.48344 0.75469-1.0895 1.2303-1.8125 1.4688-0.72406 0.23625-1.668 0.375-2.8438 0.375h-1.4688v-9.5c0.36203-0.040468 0.88-0.0625 1.5625-0.0625zm202.06 3.875c-1.1944 0-2.1576 0.34891-2.9375 1.0938-0.77875 0.74484-1.1875 1.6936-1.1875 2.8125 0 0.73391 0.20374 1.415 0.5625 2.0625 0.35875 0.64859 0.83001 1.1902 1.4688 1.5938 0.63875 0.40578 1.6172 0.86703 2.875 1.4062 1.4109 0.60266 2.3758 1.1636 2.9062 1.6875 0.53156 0.53156 0.78126 1.1823 0.78125 1.9688 0 0.77875-0.30141 1.4961-0.90625 2.125-0.60594 0.62891-1.4589 0.9375-2.5625 0.9375-2.4533 0-4-1.6497-4.6562-4.9375h-0.59375v5.0625h0.59375c0.12359-0.65734 0.30547-1.1692 0.5625-1.5312 1.1528 1.3191 2.5888 1.9688 4.3125 1.9688 1.4995 0 2.6969-0.41 3.5938-1.25 0.89688-0.84219 1.3438-1.9381 1.3438-3.2812 0-0.84875-0.19281-1.6014-0.5625-2.25-0.37296-0.6475-0.85297-1.1336-1.4688-1.5-0.61469-0.36641-1.6158-0.86391-2.9688-1.4688-1.4142-0.63766-2.3638-1.2134-2.9062-1.7188-0.55235-0.49656-0.84374-1.0939-0.84375-1.8125 0-0.595 0.21767-1.1542 0.65625-1.6562 0.43969-0.49984 1.1219-0.75 2.0625-0.75 0.98766 0 1.8769 0.35203 2.625 1.0312 0.7514 0.68141 1.2672 1.5956 1.5625 2.7812h0.5v-4.0938h-0.5c-0.04484 0.49328-0.23828 0.95172-0.59375 1.375-0.61906-0.67812-1.2252-1.1283-1.8125-1.3438-0.58953-0.21656-1.238-0.3125-1.9062-0.3125zm-153.78 0.03125c-2.4194 0-4.4136 0.72078-6.0312 2.1875-1.6177 1.4656-2.4375 3.4211-2.4375 5.8438 0 2.485 0.81156 4.4648 2.4062 5.9688 1.5947 1.5061 3.6356 2.2813 6.125 2.2812 2.5561 0 4.6191-0.77516 6.1875-2.2812 1.5673-1.5039 2.3438-3.4447 2.3438-5.875 0-2.508-0.8325-4.4861-2.4688-5.9375-1.6373-1.4503-3.6838-2.1875-6.125-2.1875zm36.281 0c-2.4434 0-4.3583 0.84141-5.7812 2.5312-1.423 1.6888-2.1562 3.6619-2.1562 5.9062 0 2.2684 0.7625 4.1473 2.25 5.625 1.4864 1.4777 3.3505 2.2187 5.5938 2.2188 1.1167 0 2.3136-0.2589 3.625-0.75 0.9625-0.36094 1.7509-0.53125 2.3438-0.53125 0.14657 0 0.31733-4.68e-4 0.5 0.03125v-1.6562c0-1.3562 0.03968-2.2103 0.125-2.5625 0.08422-0.35109 0.26436-0.63031 0.53125-0.78125 0.26578-0.15094 0.78312-0.21875 1.5312-0.21875v-0.53125h-6.7812v0.53125h0.375c0.62234 0 1.0483 0.058908 1.2812 0.15625 0.23297 0.095157 0.38733 0.2814 0.5 0.5625 0.11266 0.28219 0.1875 0.84422 0.1875 1.6875 0 0.71859-0.13547 1.3109-0.375 1.7812-0.23734 0.47141-0.65954 0.85937-1.3125 1.1875-0.65406 0.33031-1.3891 0.5-2.1875 0.5-1.5597 0-2.8853-0.55828-3.9375-1.7188-1.0533-1.1583-1.5625-3.155-1.5625-5.9375 0-2.7902 0.56141-4.7177 1.6562-5.8125 1.0948-1.0938 2.3694-1.6562 3.8438-1.6562 1.4262 0 2.6264 0.47 3.625 1.4062 0.99969 0.93734 1.6206 2.208 1.8438 3.8125h0.53125v-5.25h-0.53125c-0.07 0.63328-0.24187 1.2333-0.5 1.7812-1.3781-1.5389-3.1166-2.3125-5.2188-2.3125zm204.66 0c-2.4194 0-4.4136 0.72078-6.0312 2.1875-1.6177 1.4656-2.4375 3.4211-2.4375 5.8438 0 2.485 0.78031 4.4648 2.375 5.9688 1.5947 1.5061 3.6367 2.2813 6.125 2.2812 2.5583 0 4.6191-0.77516 6.1875-2.2812 1.5673-1.5039 2.375-3.4447 2.375-5.875 0-2.508-0.8325-4.4861-2.4688-5.9375-1.6373-1.4503-3.6848-2.1875-6.125-2.1875zm-101.69 0.03125l-4.5625 10.875c-0.32813 0.78203-0.54562 1.2289-0.59375 1.3438-0.48453 1.2305-0.8775 2.0245-1.2188 2.4062-0.34125 0.38281-0.8636 0.64172-1.5625 0.75v0.53125h4.7188v-0.53125c-0.50859 0-0.92845-0.13109-1.25-0.375-0.31828-0.24281-0.46875-0.59109-0.46875-1.0625 0-0.44078 0.30469-1.3677 0.90625-2.8125l0.40625-1h5.9375l1.2188 2.9062c0.35547 0.84219 0.53125 1.3305 0.53125 1.5 0 0.33141-0.14156 0.57594-0.40625 0.6875-0.26688 0.11156-0.77765 0.15625-1.5312 0.15625v0.53125h6.1562v-0.53125c-0.55015-0.053593-0.94532-0.19297-1.2188-0.40625-0.27453-0.21109-0.49438-0.50531-0.65625-0.875l-0.71875-1.625-5.2188-12.469h-0.46875zm-122.75 0.0625c-0.87828 0-2.0684 0.028125-3.5625 0.09375l-2.2188 0.09375v0.53125h0.25c0.80828 0 1.3498 0.079843 1.5938 0.21875 0.24172 0.13891 0.39875 0.38797 0.46875 0.75 0.07109 0.36203 0.09375 1.1572 0.09375 2.4062v7.7188c0 1.3114-0.02375 2.1402-0.09375 2.5-0.0689 0.35875-0.24078 0.61281-0.5 0.78125-0.25812 0.16953-0.73359 0.25-1.4062 0.25h-0.5v0.53125h7.5312v-0.53125h-0.75c-0.71203 0-1.2183-0.096407-1.4688-0.28125-0.25265-0.18375-0.41187-0.46313-0.46875-0.84375-0.05797-0.37734-0.0625-1.1802-0.0625-2.4062v-3.4375h0.625c0.4211 0 0.70609 0.077655 0.90625 0.21875 0.19797 0.14219 0.56438 0.50656 1.0938 1.1562 0.52829 0.64641 1.0391 1.3258 1.5312 2.0312 1.5324 2.2072 2.6938 3.5677 3.4375 4.0938h4.1875v-0.53125c-0.91766-0.030625-1.7012-0.28797-2.375-0.78125-0.67156-0.49547-1.5978-1.5369-2.7812-3.125-1.4525-1.9622-2.5334-3.0923-3.1875-3.4062 1.4525-0.17719 2.5644-0.6175 3.3125-1.3438 0.75032-0.72625 1.125-1.6281 1.125-2.6562 0-0.88047-0.2975-1.6167-0.875-2.25-0.5775-0.63547-1.3159-1.0961-2.25-1.375-0.93626-0.27781-2.1633-0.40625-3.6562-0.40625zm37.406 0l-4.5938 10.844c-0.32922 0.78094-0.51109 1.2289-0.5625 1.3438-0.48125 1.2305-0.90765 2.0558-1.25 2.4375-0.34234 0.38281-0.83342 0.61047-1.5312 0.71875v0.53125h4.7188v-0.53125c-0.51078 0-0.93063-0.099844-1.25-0.34375-0.32047-0.24391-0.46874-0.62234-0.46875-1.0938 0-0.44078 0.30359-1.3677 0.90625-2.8125l0.40625-1h5.9375l1.1875 2.9062c0.35438 0.84219 0.5625 1.3617 0.5625 1.5312 0 0.33141-0.13939 0.54469-0.40625 0.65625-0.26578 0.11156-0.77656 0.15625-1.5312 0.15625v0.53125h6.1562v-0.53125c-0.54797-0.054687-0.94531-0.16172-1.2188-0.375-0.27344-0.21109-0.49547-0.50531-0.65625-0.875l-0.71875-1.6562-5.2188-12.438h-0.46875zm58.375 0.15625v0.53125h0.3125c0.80062 0 1.2939 0.080937 1.5312 0.21875 0.23625 0.13891 0.39765 0.38687 0.46875 0.75 0.07437 0.36203 0.125 1.1583 0.125 2.4062v7.6875c0 1.3125-0.05063 2.1714-0.125 2.5312-0.0711 0.35875-0.24078 0.61281-0.5 0.78125-0.26031 0.16953-0.73033 0.25-1.4062 0.25h-0.40625v0.53125h7.125v-0.53125h-0.40625c-0.71094 0-1.215-0.096405-1.4688-0.28125-0.25375-0.18594-0.4075-0.46203-0.46875-0.84375-0.06234-0.38281-0.09375-1.1994-0.09375-2.4375v-3.7812h8.1875v3.7812c0 1.3147-0.02375 2.1402-0.09375 2.5-0.0689 0.35984-0.24515 0.64188-0.5 0.8125-0.25703 0.16953-0.71656 0.25-1.375 0.25h-0.53125v0.53125h7.0938v-0.53125h-0.34375c-0.7 0-1.1826-0.096405-1.4375-0.28125-0.25376-0.18484-0.41079-0.46203-0.46875-0.84375-0.05906-0.38172-0.09375-1.2027-0.09375-2.4375v-7.6875c0-1.3016 0.04516-2.122 0.125-2.4688 0.08203-0.34672 0.2314-0.59297 0.46875-0.71875 0.23953-0.12797 0.76124-0.1875 1.5312-0.1875h0.21875v-0.53125h-7.0938v0.53125h0.40625c0.78859 0 1.2972 0.080937 1.5312 0.21875 0.23407 0.13891 0.39985 0.38687 0.46875 0.75 0.07 0.36203 0.09375 1.1583 0.09375 2.4062v3.125h-8.1875v-3.125c0-1.3016 0.04297-2.122 0.125-2.4688s0.25718-0.59297 0.5-0.71875c0.24172-0.12797 0.72672-0.1875 1.5-0.1875h0.3125v-0.53125h-7.125zm50.625 0v0.53125c0.76235 0 1.2616 0.067814 1.5 0.21875 0.23735 0.14875 0.40313 0.40391 0.46875 0.78125 0.06781 0.37734 0.09375 1.1806 0.09375 2.375v7.6875c0 1.3114-0.03249 2.1483-0.09375 2.4688-0.06234 0.31938-0.21108 0.57234-0.4375 0.78125-0.2264 0.20781-0.69656 0.3125-1.4688 0.3125h-0.34375v0.53125h12.938l0.34375-4.875h-0.53125c-0.27781 1.1747-0.67609 2.0916-1.1562 2.75-0.48016 0.66062-0.97173 1.0898-1.5 1.2812-0.53265 0.19141-1.2077 0.28125-2.0312 0.28125h-1.1562c-1.0478 0-1.698-0.17297-1.9375-0.5-0.23844-0.32703-0.34376-1.4241-0.34375-3.2812v-3.7188h1.6875c0.66719 0 1.1564 0.066563 1.4375 0.15625 0.28 0.088594 0.47954 0.26609 0.625 0.5625 0.14547 0.29859 0.21874 0.87938 0.21875 1.75h0.53125v-5.3438h-0.53125c0 0.76891-0.06001 1.2978-0.15625 1.5625-0.09625 0.26578-0.29298 0.4625-0.59375 0.59375-0.30187 0.13125-0.83579 0.1875-1.5938 0.1875h-1.625v-6.5625h2.1562c1.0872 0 1.8527 0.068282 2.3438 0.1875 0.49 0.12031 0.92468 0.38656 1.2812 0.84375 0.35437 0.45828 0.66125 1.2511 0.90625 2.3438h0.53125l-0.375-3.9062h-11.188zm-98.688 0.03125v0.53125c0.84656 0 1.38 0.071561 1.625 0.1875 0.245 0.11594 0.41859 0.37328 0.53125 0.78125 0.11265 0.40797 0.1875 1.202 0.1875 2.4062v8.3438c0 0.94828-0.05281 1.5264-0.125 1.7812-0.07328 0.25375-0.29594 0.49781-0.6875 0.71875-0.39046 0.22094-0.94484 0.35156-1.6875 0.40625v0.53125h5.8125v-0.53125c-0.82906 0-1.4292-0.10422-1.8438-0.34375-0.41453-0.23844-0.69156-0.49469-0.78125-0.78125-0.08859-0.28547-0.125-0.87891-0.125-1.7812v-10.906l11.156 14.719h0.46875v-13c0-0.67156 0.05345-1.1241 0.15625-1.4062 0.10281-0.28109 0.3425-0.54984 0.71875-0.75 0.37843-0.20016 0.90625-0.32031 1.5625-0.375v-0.53125h-5.6562v0.53125c0.61688 0 1.1239 0.088125 1.5625 0.25 0.43969 0.16188 0.73282 0.37953 0.875 0.65625 0.14219 0.27891 0.21875 0.77531 0.21875 1.4688v9.375l-9.2812-12.281h-4.6875zm-64.188 0.28125c1.9108 0 3.3698 0.66828 4.375 1.9688 1.0052 1.3005 1.5 3.1536 1.5 5.5938 0 2.5091-0.51187 4.3897-1.5312 5.6562-1.0216 1.2666-2.3986 1.9062-4.1562 1.9062-2.0048 0-3.4981-0.63969-4.5-1.9062-1.0019-1.2666-1.5-3.1319-1.5-5.6562 0-2.4861 0.49812-4.3864 1.5-5.6562 1.0019-1.2698 2.4302-1.9062 4.3125-1.9062zm240.94 0c1.9108 0 3.3698 0.66828 4.375 1.9688 1.0073 1.3005 1.5 3.1536 1.5 5.5938 0 2.5091-0.51189 4.3897-1.5312 5.6562-1.0216 1.2666-2.3997 1.9062-4.1562 1.9062-2.0048 0-3.5294-0.63969-4.5312-1.9062-1.0019-1.2666-1.5-3.1319-1.5-5.6562 0-2.4861 0.49813-4.3864 1.5-5.6562 1.0019-1.2698 2.4614-1.9062 4.3438-1.9062zm-224.59 0.09375c1.8255 0 3.0178 0.33609 3.5625 1 0.5436 0.66391 0.8125 1.5527 0.8125 2.6562 0 0.63438-0.09031 1.1606-0.25 1.5938-0.16078 0.43203-0.37843 0.79672-0.65625 1.0625-0.27781 0.26688-0.64422 0.45594-1.0938 0.59375-0.44844 0.13891-0.98453 0.21828-1.5938 0.25-0.60922 0.030625-1.1791 0.048281-1.75 0.0625v-7.1875c0.36531-0.031718 0.68656-0.03125 0.96875-0.03125zm122.22 2.2812l2.75 6.625h-5.4688l2.7188-6.625zm-85.344 0.03125l2.75 6.6562h-5.5l2.75-6.6562zm136.03 1.6562c1.5958 2.0847 3.5116 4.7941 5.7188 8.1562-1.2436 1.447-2.599 2.1875-4.0625 2.1875-1.318 0-2.519-0.56922-3.5625-1.7188-1.0434-1.1484-1.5625-2.3958-1.5625-3.6875 0-0.83781 0.3014-1.6958 0.90625-2.5938 0.60157-0.89797 1.4622-1.6722 2.5625-2.3438zm63.281 8.3438c-0.4714 0-0.88298 0.16312-1.2188 0.5-0.33797 0.33688-0.50001 0.74844-0.5 1.2188 0 0.46156 0.16858 0.87094 0.5 1.2188 0.33031 0.34781 0.73861 0.5 1.2188 0.5 0.47141 0 0.8764-0.16422 1.2188-0.5 0.34234-0.33797 0.49999-0.7375 0.5-1.2188 0-0.47031-0.16423-0.88188-0.5-1.2188-0.33907-0.33688-0.73639-0.5-1.2188-0.5z"/>
<rect width="360" height="45" fill="none"/>
</svg>
