<?xml version="1.0" standalone="no"?>
<!DOCTYPE svg PUBLIC "-//W3C//DTD SVG 20010904//EN"
 "http://www.w3.org/TR/2001/REC-SVG-20010904/DTD/svg10.dtd">
<svg version="1.0" xmlns="http://www.w3.org/2000/svg"
 width="400.000000pt" height="400.000000pt" viewBox="56 56 353.000000 310.000000"
 preserveAspectRatio="xMidYMid meet">
<metadata>
Created by potrace 1.16, written by Peter Selinger 2001-2019
</metadata>
<g transform="translate(0.000000,469.000000) scale(0.100000,-0.100000)"
fill="#000000" stroke="none">
<path d="M2188 4150 c-20 -11 -51 -41 -69 -66 -29 -43 -31 -51 -26 -111 3 -43
12 -74 25 -92 11 -15 23 -41 27 -59 4 -21 13 -32 24 -32 9 0 34 -16 56 -35 30
-28 45 -35 72 -33 20 1 38 -3 42 -11 9 -14 -37 -210 -58 -249 -10 -18 -9 -26
4 -44 22 -33 20 -105 -5 -118 -37 -20 -105 -22 -199 -5 -83 14 -96 14 -103 2
-5 -9 -16 -13 -28 -10 -25 7 -28 -22 -3 -36 10 -5 22 -24 28 -42 9 -26 19 -35
56 -45 24 -7 67 -15 94 -18 28 -3 50 -5 50 -6 0 -1 25 -7 55 -13 l55 -12 -2
-196 c-2 -194 -3 -197 -32 -260 -16 -35 -39 -87 -50 -116 -11 -28 -39 -90 -61
-137 -23 -47 -40 -94 -39 -103 1 -10 -1 -31 -6 -46 -5 -18 -3 -33 3 -39 8 -8
7 -18 -2 -37 -7 -14 -17 -47 -20 -73 -9 -59 -58 -207 -81 -241 -12 -18 -15
-36 -10 -57 5 -25 2 -36 -14 -51 -12 -11 -21 -23 -21 -28 0 -4 -26 -20 -58
-35 -53 -26 -67 -28 -148 -25 -77 4 -89 2 -92 -13 -5 -27 64 -65 184 -103 72
-23 132 -35 168 -35 l56 0 23 48 c14 26 34 79 47 117 12 39 37 102 55 140 19
39 50 131 70 205 57 213 54 207 149 356 16 25 32 42 36 37 5 -4 26 -57 49
-117 49 -132 68 -165 108 -191 28 -19 57 -56 75 -97 4 -10 28 -48 53 -86 25
-38 45 -78 45 -88 0 -30 54 -154 67 -154 35 0 26 -54 -18 -105 -28 -31 -29
-36 -16 -50 12 -12 42 -15 143 -15 l127 0 -7 47 c-14 108 -24 152 -56 233 -36
90 -163 345 -185 370 -25 29 -58 96 -72 145 -25 90 -64 279 -70 335 -6 51 -4
55 25 80 29 24 30 28 32 110 2 112 -27 620 -40 690 -13 69 -75 200 -127 265
-22 28 -43 62 -46 77 -6 21 -14 27 -40 30 -30 3 -33 7 -54 73 -12 39 -24 82
-27 97 -3 15 -24 41 -47 59 -52 41 -117 49 -171 19z"/>
<path d="M1702 1473 c2 -11 14 -19 31 -21 18 -2 29 -11 32 -25 3 -12 4 -130 3
-262 l-3 -240 -32 -10 c-18 -5 -33 -15 -33 -22 0 -10 28 -13 116 -13 87 0 115
3 112 12 -3 7 -19 17 -36 22 l-32 9 0 261 c0 144 -3 271 -6 284 -6 20 -12 22
-81 22 -66 0 -74 -2 -71 -17z"/>
<path d="M1942 1473 c2 -11 14 -19 31 -21 18 -2 29 -11 32 -25 3 -12 4 -130 3
-262 l-3 -240 -32 -10 c-18 -5 -33 -15 -33 -22 0 -10 27 -13 110 -13 88 0 110
3 110 14 0 8 -13 17 -30 21 l-30 7 0 81 0 82 23 -27 c12 -15 51 -61 87 -102
l64 -76 274 0 273 0 -3 58 c-3 50 -6 57 -25 60 -17 3 -24 -3 -28 -25 -4 -15
-8 -34 -11 -40 -2 -9 -29 -13 -88 -13 -74 0 -87 3 -96 19 -11 21 -14 409 -4
447 4 14 16 24 35 28 17 3 29 12 29 21 0 13 -19 15 -115 15 -90 0 -115 -3
-115 -14 0 -7 15 -17 33 -22 l32 -10 3 -234 c3 -261 3 -260 -64 -260 -40 0
-65 20 -154 125 l-73 86 68 69 c43 43 78 70 94 72 15 2 27 10 29 21 3 15 -6
17 -82 17 -70 0 -86 -3 -86 -15 0 -9 9 -15 25 -15 14 0 25 -3 25 -8 0 -4 -34
-41 -75 -82 l-75 -74 0 169 c0 94 -3 180 -6 193 -6 20 -12 22 -81 22 -66 0
-74 -2 -71 -17z"/>
<path d="M550 1436 c0 -8 11 -17 24 -20 26 -6 20 14 110 -336 71 -276 72 -276
150 -10 33 110 63 197 67 193 5 -5 35 -94 67 -198 77 -252 78 -253 149 -10
106 363 103 353 134 360 16 4 29 13 29 21 0 11 -18 14 -85 14 -65 0 -85 -3
-85 -14 0 -7 14 -16 30 -19 18 -4 30 -13 30 -22 0 -21 -90 -338 -99 -348 -4
-4 -34 83 -66 193 -78 266 -78 266 -159 2 -33 -106 -63 -187 -66 -180 -17 31
-83 326 -77 341 4 10 17 17 32 17 16 0 25 6 25 15 0 12 -18 15 -105 15 -83 0
-105 -3 -105 -14z"/>
<path d="M1385 1293 c-49 -18 -50 -19 -50 -58 0 -37 2 -40 31 -43 27 -3 32 1
37 26 4 17 16 33 32 40 38 17 53 15 80 -13 19 -18 25 -35 25 -70 l0 -45 -42 0
c-136 0 -224 -88 -185 -183 33 -78 120 -101 202 -52 l42 24 22 -25 c18 -21 29
-25 64 -22 34 2 42 7 42 23 0 13 -6 19 -16 17 -31 -5 -37 23 -41 175 l-3 153
-32 32 c-29 28 -40 32 -95 35 -42 2 -80 -3 -113 -14z m155 -269 l0 -75 -34
-14 c-58 -24 -106 5 -106 65 0 43 32 78 82 90 59 14 58 16 58 -66z"/>
<path d="M2975 1295 c-43 -23 -65 -45 -85 -85 -44 -88 -32 -206 29 -273 45
-51 85 -67 158 -66 80 0 127 18 131 48 3 21 1 23 -20 16 -12 -4 -50 -9 -83
-12 -55 -5 -64 -3 -93 22 -32 26 -52 76 -52 128 l0 27 126 0 127 0 -6 51 c-12
97 -62 150 -149 156 -36 3 -63 -1 -83 -12z m121 -50 c9 -14 19 -45 22 -70 l5
-45 -69 0 c-93 0 -101 7 -85 62 17 58 37 78 77 78 25 0 38 -7 50 -25z"/>
<path d="M3468 1281 l-46 -29 -6 24 c-6 23 -10 24 -81 24 -61 0 -75 -3 -75
-15 0 -9 12 -18 30 -22 39 -7 41 -18 38 -193 l-3 -145 -32 -10 c-18 -5 -33
-15 -33 -22 0 -10 28 -13 116 -13 87 0 115 3 112 12 -3 7 -19 17 -36 22 l-32
9 0 133 0 133 33 25 c46 36 92 44 117 21 18 -16 20 -31 20 -166 l0 -148 -35
-7 c-20 -3 -35 -12 -35 -20 0 -11 24 -14 115 -14 87 0 115 3 115 13 0 7 -15
17 -32 22 l-33 10 -5 150 c-4 100 -10 159 -20 178 -31 63 -118 75 -192 28z"/>
<path d="M3855 1296 c-50 -22 -70 -52 -70 -106 0 -62 26 -92 115 -132 36 -17
73 -37 83 -46 26 -23 22 -67 -9 -91 -32 -25 -42 -26 -93 -5 -34 13 -40 21 -46
55 -6 33 -11 39 -31 39 -24 0 -25 -2 -22 -57 3 -56 3 -56 43 -70 61 -22 172
-14 212 15 44 31 61 88 42 139 -13 34 -25 43 -108 84 -101 49 -119 70 -99 114
6 13 23 28 38 33 36 13 90 -9 90 -37 0 -35 12 -51 36 -51 22 0 24 4 24 54 l0
54 -44 11 c-59 15 -124 13 -161 -3z"/>
</g>
</svg>
