<?xml version="1.0" standalone="no"?>
<!DOCTYPE svg PUBLIC "-//W3C//DTD SVG 20010904//EN"
 "http://www.w3.org/TR/2001/REC-SVG-20010904/DTD/svg10.dtd">
<svg version="1.0" xmlns="http://www.w3.org/2000/svg"
 width="900.000000pt" height="900.000000pt" viewBox="0 0 900.000000 900.000000"
 preserveAspectRatio="xMidYMid meet">
<metadata>
Created by potrace 1.10, written by Peter Selinger 2001-2011
</metadata>
<g transform="translate(0.000000,900.000000) scale(0.100000,-0.100000)"
fill="#000000" stroke="none">
<path d="M5704 8735 c-10 -8 -26 -15 -36 -15 -34 0 -204 -72 -302 -127 -150
-85 -385 -272 -425 -338 -10 -16 -38 -52 -62 -80 -24 -27 -58 -70 -74 -95 -16
-25 -53 -73 -82 -108 -29 -35 -53 -66 -53 -70 0 -4 -13 -21 -28 -38 -15 -17
-45 -54 -66 -82 -21 -29 -43 -55 -50 -59 -7 -5 -19 -20 -27 -35 -8 -14 -45
-64 -82 -110 -37 -45 -97 -121 -132 -168 -190 -250 -239 -312 -251 -317 -8 -3
-14 -11 -14 -18 0 -8 -18 -35 -40 -60 -22 -25 -45 -55 -51 -67 -13 -25 -98
-139 -113 -153 -6 -5 -52 -63 -101 -128 -49 -65 -116 -147 -148 -183 -49 -53
-57 -67 -47 -79 7 -8 26 -14 43 -12 48 3 47 -27 -2 -70 -23 -19 -41 -40 -41
-47 0 -10 50 -12 223 -10 221 3 222 3 242 27 51 62 118 148 176 228 20 27 47
62 61 77 14 15 54 65 89 112 35 47 67 90 71 95 39 49 174 227 233 307 11 15
58 75 105 134 130 165 281 359 399 515 126 166 300 313 466 393 44 21 89 42
100 46 70 25 98 34 170 51 109 27 255 38 400 28 351 -23 682 -204 912 -500 51
-65 157 -272 179 -349 8 -30 19 -82 25 -115 5 -33 14 -73 19 -89 14 -41 13
-169 -2 -184 -10 -10 -10 -17 -1 -32 10 -15 9 -34 -6 -92 -26 -102 -88 -261
-106 -274 -8 -6 -15 -19 -15 -29 0 -26 -80 -144 -102 -151 -19 -6 -34 -46 -24
-63 4 -6 20 -8 36 -4 50 9 50 -21 1 -71 -22 -23 -41 -46 -41 -52 0 -9 214 -11
432 -4 7 0 79 144 113 225 36 88 70 204 101 351 14 67 16 118 11 305 -5 218
-13 301 -42 404 -8 28 -19 73 -25 100 -27 117 -106 283 -207 436 -115 177
-263 322 -448 444 -33 21 -61 42 -63 47 -2 4 -7 8 -12 8 -4 0 -59 24 -121 54
-63 29 -136 59 -164 66 -27 7 -59 19 -70 27 -30 20 -903 19 -931 -2z m926 -81
c14 -7 45 -20 70 -29 60 -23 92 -37 170 -75 130 -63 171 -87 208 -122 20 -19
53 -44 72 -56 48 -29 175 -160 252 -262 61 -79 198 -327 198 -356 0 -8 11 -38
24 -69 14 -30 27 -76 31 -102 3 -27 12 -70 20 -98 8 -27 18 -81 23 -120 12
-97 15 -520 3 -559 -5 -17 -17 -60 -26 -96 -10 -36 -21 -74 -25 -85 -17 -41
-80 -181 -89 -195 -7 -12 -36 -15 -164 -15 -85 0 -158 3 -162 6 -3 4 17 38 46
75 43 58 81 128 129 239 60 137 82 388 45 520 -9 33 -25 92 -35 130 -28 104
-49 166 -59 179 -4 6 -11 27 -15 47 -3 19 -31 78 -62 130 -31 52 -59 101 -63
110 -13 32 -156 195 -214 244 -33 28 -67 57 -77 66 -9 8 -23 19 -31 22 -8 4
-26 15 -40 25 -79 51 -148 92 -157 92 -5 0 -23 7 -38 15 -16 8 -39 15 -50 15
-12 0 -24 7 -28 15 -3 9 -18 15 -39 15 -19 0 -40 7 -47 15 -7 8 -25 15 -40 15
-15 0 -43 6 -61 13 -44 17 -373 22 -449 7 -30 -6 -75 -15 -100 -19 -48 -9 -90
-23 -156 -53 -22 -10 -47 -18 -56 -18 -17 0 -105 -45 -129 -66 -8 -8 -18 -14
-21 -14 -7 0 -100 -59 -143 -92 -67 -50 -181 -172 -286 -308 -32 -41 -72 -91
-88 -110 -17 -19 -31 -38 -31 -43 0 -4 -13 -22 -29 -40 -16 -17 -62 -77 -103
-132 -41 -55 -82 -106 -91 -114 -9 -7 -17 -18 -17 -24 0 -5 -17 -29 -37 -52
-21 -23 -67 -81 -103 -129 -82 -109 -191 -248 -238 -305 -21 -24 -39 -49 -42
-56 -3 -7 -16 -26 -30 -42 -35 -39 -148 -183 -188 -241 -19 -26 -44 -58 -57
-72 -12 -14 -28 -35 -34 -47 -11 -22 -16 -23 -169 -23 -181 0 -203 7 -154 48
18 15 32 33 32 40 0 7 10 23 23 35 36 34 137 165 137 177 0 6 6 13 14 16 15 6
125 147 210 268 26 38 56 77 66 85 19 18 122 153 160 211 14 21 35 49 48 62
22 21 136 165 199 251 29 39 82 107 128 164 14 18 52 67 84 110 32 43 71 92
85 108 14 17 45 57 69 90 23 33 53 72 67 86 14 14 45 49 69 78 41 50 173 160
271 227 64 44 235 128 300 148 30 9 64 22 75 28 11 6 31 14 45 19 41 13 871 6
900 -7z"/>
<path d="M5940 8067 c-102 -27 -212 -78 -300 -140 -66 -46 -172 -148 -193
-184 -7 -11 -48 -67 -92 -123 -44 -57 -115 -149 -157 -204 -43 -56 -89 -114
-103 -131 -25 -29 -217 -281 -280 -369 -91 -124 -117 -156 -125 -156 -6 0 -10
-7 -10 -15 0 -8 -15 -32 -33 -52 -18 -21 -61 -76 -97 -123 -35 -47 -80 -99
-100 -117 -28 -25 -33 -34 -23 -44 7 -7 27 -13 44 -13 44 -1 62 -30 31 -52
-32 -22 -72 -66 -67 -74 4 -7 432 -3 444 5 6 3 92 114 271 349 264 347 250
329 301 390 14 17 28 38 31 46 4 8 35 51 70 96 34 45 88 114 118 155 123 164
225 242 370 280 110 30 250 17 355 -32 59 -27 146 -91 184 -137 64 -74 124
-214 123 -288 -1 -52 -55 -176 -108 -242 -27 -35 -65 -85 -84 -112 -97 -132
-197 -260 -237 -301 -52 -54 -55 -84 -9 -84 31 0 62 -34 38 -42 -26 -10 -72
-55 -72 -72 0 -16 18 -17 221 -14 122 1 222 4 224 5 13 19 151 199 191 248 95
120 145 222 186 385 18 71 19 99 13 250 -9 224 -9 228 -16 240 -3 6 -14 37
-24 70 -19 66 -65 165 -109 235 -85 135 -298 299 -446 343 -30 8 -73 21 -95
27 -22 7 -110 14 -195 16 -135 2 -166 0 -240 -19z m450 -84 c205 -63 378 -194
478 -366 65 -112 91 -206 117 -430 20 -162 19 -247 -1 -294 -44 -99 -104 -213
-113 -213 -9 0 -71 -87 -71 -100 0 -5 -6 -13 -13 -17 -22 -14 -107 -124 -107
-139 0 -11 -29 -14 -162 -14 -90 0 -169 4 -177 9 -12 7 -4 21 36 68 75 87 279
346 294 374 8 13 19 31 25 39 7 8 19 37 28 64 9 26 21 57 27 68 17 31 18 117
3 172 -8 28 -20 69 -26 91 -6 22 -16 47 -23 55 -7 8 -15 30 -18 48 -7 33 -104
170 -148 207 -43 37 -88 65 -103 65 -8 0 -18 5 -21 10 -20 32 -140 63 -245 63
-104 1 -161 -13 -260 -64 -81 -42 -210 -152 -210 -179 0 -5 -9 -19 -19 -29
-10 -10 -67 -81 -125 -157 -58 -77 -126 -164 -151 -194 -24 -30 -44 -59 -45
-64 0 -5 -6 -14 -14 -20 -7 -6 -55 -67 -107 -136 -51 -69 -108 -143 -126 -165
-45 -53 -49 -59 -76 -97 -12 -18 -41 -58 -64 -88 -24 -30 -57 -74 -75 -97
l-33 -43 -145 0 c-80 0 -155 3 -167 6 -21 6 -21 8 20 63 23 31 62 79 87 107
25 28 58 70 74 95 17 24 38 53 48 64 51 56 68 77 68 86 0 5 10 19 23 31 12 13
50 62 83 109 34 48 107 144 163 213 55 69 112 143 125 165 14 22 34 45 44 53
10 7 24 22 30 34 11 20 32 48 117 154 20 25 59 75 86 113 27 37 73 85 102 107
29 21 60 46 70 55 10 9 35 24 55 32 21 8 43 20 50 26 20 16 121 57 167 69 136
32 299 29 425 -9z"/>
<path d="M1539 5805 c-7 -6 -127 -25 -186 -28 -18 -1 -38 -8 -45 -15 -6 -6
-17 -12 -24 -12 -16 0 -95 -37 -118 -55 -11 -8 -28 -15 -39 -15 -26 0 -241
-161 -302 -226 -95 -101 -145 -161 -145 -171 0 -6 -20 -38 -45 -72 -25 -34
-45 -65 -45 -70 0 -5 -7 -14 -15 -21 -8 -7 -15 -20 -15 -30 0 -9 -14 -42 -30
-73 -17 -31 -30 -65 -30 -76 0 -10 -7 -24 -15 -31 -8 -7 -15 -26 -15 -42 0
-16 -5 -39 -11 -50 -6 -11 -13 -48 -16 -82 -2 -33 -9 -79 -16 -101 -13 -48
-17 -366 -4 -415 5 -19 13 -60 17 -90 11 -73 44 -177 70 -222 6 -10 10 -27 10
-38 0 -22 52 -124 79 -155 10 -11 25 -36 34 -56 9 -19 27 -47 40 -61 13 -14
34 -42 46 -61 32 -53 197 -206 282 -262 125 -84 156 -100 234 -126 33 -11 72
-27 86 -35 15 -7 62 -19 105 -25 43 -6 82 -13 87 -16 4 -2 78 -4 163 -4 166 1
243 13 374 57 41 14 87 28 103 31 15 3 41 18 57 33 16 15 36 30 44 33 38 15
42 53 37 304 -4 176 -9 246 -19 255 -10 10 -23 1 -70 -48 -71 -75 -181 -154
-215 -154 -14 0 -29 -4 -32 -10 -3 -5 -16 -10 -28 -10 -13 0 -33 -7 -46 -16
-33 -23 -329 -24 -361 -1 -12 9 -28 13 -35 11 -6 -3 -18 2 -25 11 -7 8 -24 15
-39 15 -55 0 -284 182 -325 257 -5 10 -33 55 -63 100 -29 46 -56 96 -59 113
-4 17 -11 33 -15 36 -5 3 -9 20 -9 38 0 19 -7 39 -15 46 -8 7 -15 29 -15 49
-1 20 -6 52 -13 71 -20 55 -21 237 -3 290 9 25 16 59 16 75 0 17 6 39 14 50 7
11 17 36 21 55 4 19 11 40 16 45 4 6 10 24 13 40 3 15 9 31 14 34 5 3 13 17
17 31 4 14 11 27 15 30 11 8 80 109 80 118 0 7 31 39 122 127 44 43 156 104
259 142 69 25 85 27 231 26 103 0 162 -4 171 -11 7 -6 45 -23 83 -38 38 -14
83 -36 101 -50 17 -13 35 -24 40 -24 4 0 31 -20 58 -45 84 -76 79 -73 105 -50
15 14 16 41 13 258 -4 244 -10 287 -42 287 -9 0 -31 9 -49 20 -18 11 -39 20
-46 20 -7 0 -19 7 -26 15 -7 8 -25 15 -40 15 -16 0 -30 5 -32 11 -4 12 -68 27
-148 35 -81 9 -365 15 -371 9z m350 -94 c11 -6 36 -13 55 -15 20 -3 45 -10 56
-16 11 -6 25 -8 30 -5 5 3 38 -8 74 -24 87 -39 97 -59 102 -213 3 -93 0 -126
-11 -149 -14 -26 -17 -28 -43 -16 -15 6 -33 17 -40 24 -7 7 -19 13 -25 13 -7
0 -24 11 -39 25 -15 14 -38 25 -51 25 -14 0 -41 7 -62 16 -35 14 -172 37 -225
37 -67 -1 -194 -22 -236 -39 -18 -8 -45 -14 -59 -14 -14 0 -25 -4 -25 -10 0
-5 -8 -10 -18 -10 -10 0 -29 -12 -43 -26 -13 -14 -39 -32 -57 -40 -18 -7 -63
-43 -99 -79 -37 -36 -70 -65 -74 -65 -3 0 -10 -8 -13 -17 -11 -32 -32 -62 -59
-87 -15 -14 -27 -32 -27 -40 0 -8 -4 -17 -9 -20 -21 -13 -81 -153 -81 -188 0
-28 -5 -40 -21 -48 -13 -7 -18 -17 -15 -27 4 -9 0 -25 -7 -37 -18 -27 -27
-119 -27 -281 0 -132 2 -168 12 -195 3 -8 11 -35 18 -60 30 -110 101 -259 152
-318 15 -18 28 -36 28 -41 0 -16 118 -130 192 -184 42 -31 101 -66 130 -78 29
-11 58 -25 65 -31 7 -5 16 -7 21 -4 4 3 28 -2 53 -11 69 -24 335 -21 410 5 58
21 163 66 189 83 48 30 61 33 77 16 24 -24 33 -176 15 -256 -11 -47 -55 -95
-99 -107 -13 -3 -23 -10 -23 -14 0 -5 -21 -12 -47 -15 -27 -3 -56 -10 -65 -16
-10 -5 -32 -9 -49 -9 -17 0 -55 -7 -85 -16 -84 -24 -364 -8 -449 26 -11 5 -38
12 -59 15 -22 4 -49 13 -60 21 -11 8 -30 14 -43 14 -12 0 -26 6 -30 14 -4 7
-37 28 -73 45 -36 18 -72 39 -81 47 -8 8 -20 14 -26 14 -6 0 -28 16 -49 36
-93 88 -184 179 -184 185 0 3 -18 26 -41 50 -22 24 -43 56 -46 71 -3 15 -11
29 -19 32 -8 3 -14 12 -14 19 0 8 -6 20 -14 26 -8 7 -12 21 -9 31 4 14 0 20
-10 20 -9 0 -19 9 -22 20 -3 11 -11 20 -16 20 -5 0 -9 16 -9 35 0 19 -13 58
-29 87 -24 45 -30 73 -40 183 -33 337 -15 635 42 703 14 17 37 81 37 103 0 9
10 31 23 50 12 19 29 50 37 69 7 19 24 48 37 63 13 16 23 34 23 42 0 18 147
200 208 256 27 26 62 55 78 65 16 10 39 26 51 37 75 66 271 150 383 164 19 2
44 8 55 13 11 5 38 11 60 14 70 7 323 -2 344 -13z"/>
<path d="M2671 5736 c-18 -22 -18 -2569 1 -2574 7 -2 37 -15 66 -29 49 -24 57
-25 89 -14 26 10 147 12 513 10 427 -3 481 -2 497 13 10 8 29 19 41 23 l24 7
-6 181 c-4 100 -11 186 -16 191 -5 5 -167 8 -387 7 l-378 -2 2 1087 c2 787 0
1091 -8 1101 -17 20 -422 19 -438 -1z m329 -92 c17 -11 30 -27 30 -38 0 -11 7
-28 16 -38 12 -13 14 -21 6 -30 -7 -9 -10 -121 -8 -333 1 -176 -2 -338 -5
-360 -5 -29 -3 -44 7 -57 9 -9 11 -18 5 -22 -10 -7 -8 -626 2 -643 4 -6 2 -24
-3 -40 -7 -19 -8 -66 -2 -134 7 -83 6 -107 -5 -120 -11 -13 -11 -22 2 -59 11
-32 12 -46 4 -56 -6 -8 -8 -21 -4 -31 5 -10 7 -22 6 -26 -10 -45 92 -171 153
-188 17 -5 145 -9 284 -9 336 0 340 -2 336 -140 -2 -59 -7 -77 -22 -90 -10 -8
-22 -23 -25 -32 -6 -17 -39 -18 -502 -18 -458 0 -495 1 -495 17 0 9 -10 27
-22 40 -21 22 -22 33 -23 189 0 91 3 168 7 170 5 3 4 13 -1 22 -5 9 -7 136 -5
282 4 316 4 286 -1 385 -2 44 -4 91 -4 105 1 14 3 126 5 250 2 124 3 275 2
335 -7 512 -2 637 24 672 20 25 193 23 238 -3z"/>
<path d="M4136 5743 c-3 -4 -6 -583 -6 -1289 0 -1160 2 -1282 16 -1288 9 -3
25 -6 36 -6 12 0 27 -8 34 -17 12 -17 45 -25 89 -21 11 1 49 1 85 0 163 -3
161 -3 191 29 l29 31 0 1182 c0 1142 -4 1317 -31 1367 -8 17 -28 18 -223 18
-118 0 -217 -3 -220 -6z m349 -93 c21 -17 44 -100 41 -145 -2 -22 -1 -44 2
-49 3 -5 4 -138 2 -295 -3 -261 -2 -470 1 -561 1 -19 1 -109 1 -200 0 -91 -1
-178 -1 -195 0 -16 0 -216 -1 -442 -1 -227 1 -417 5 -423 9 -15 -17 -94 -37
-108 -10 -7 -18 -22 -18 -33 0 -18 -8 -19 -100 -19 -95 0 -100 1 -116 25 -9
14 -23 25 -30 25 -8 0 -14 3 -15 8 0 4 -3 18 -5 32 -6 30 -8 127 -4 190 1 35
3 520 2 660 -3 376 0 1421 4 1463 4 31 12 60 17 64 33 20 229 22 252 3z"/>
<path d="M5056 5741 c-14 -24 -18 -309 -18 -1363 l-1 -1202 44 -26 c38 -21 57
-25 139 -25 52 -1 106 -5 120 -9 27 -8 85 12 132 46 l27 19 0 327 c-1 180 -4
356 -8 392 -4 36 -3 80 2 98 10 40 4 50 -18 28 -9 -9 -20 -16 -25 -16 -16 0
-21 -74 -24 -409 l-3 -345 -24 -19 c-13 -11 -24 -27 -24 -36 0 -13 -15 -16
-99 -19 -112 -3 -134 1 -117 22 8 10 5 15 -14 24 -24 11 -25 16 -26 99 0 49
-2 107 -4 130 -2 24 0 45 4 47 3 2 5 31 3 63 -8 142 -7 1944 1 2001 14 98 -2
94 389 94 336 1 363 -1 571 -42 141 -28 339 -178 384 -290 8 -19 24 -55 35
-80 39 -82 47 -121 54 -245 12 -243 12 -260 -1 -275 -7 -8 -15 -37 -19 -65
-13 -106 -42 -189 -73 -208 -7 -4 -13 -15 -13 -22 0 -8 -4 -15 -10 -15 -5 0
-10 -6 -10 -13 0 -23 -104 -123 -148 -142 -23 -10 -42 -22 -42 -27 0 -4 -8 -8
-18 -8 -10 0 -27 -7 -38 -15 -10 -8 -26 -15 -34 -15 -8 0 -28 -7 -44 -15 -23
-12 -82 -17 -270 -21 -310 -8 -338 -11 -350 -45 -5 -15 -6 -35 -2 -45 7 -18 9
-17 27 5 17 20 27 24 62 20 89 -8 337 -3 435 10 92 11 136 23 194 52 10 5 26
9 36 9 9 0 25 9 35 20 9 11 23 20 31 20 24 0 145 110 184 167 60 88 102 174
102 209 0 13 7 44 16 69 8 25 17 65 19 88 3 23 7 56 10 72 16 99 17 154 1 244
-10 53 -22 110 -28 126 -5 17 -12 41 -15 55 -13 67 -82 210 -102 210 -4 0 -21
19 -37 42 -30 44 -63 77 -77 78 -4 0 -32 18 -61 40 -29 22 -59 40 -67 40 -8 0
-20 5 -26 11 -5 5 -34 16 -64 24 -30 8 -74 19 -99 25 -25 7 -65 18 -90 25 -35
11 -137 14 -478 13 -238 -1 -434 -4 -436 -7z"/>
<path d="M6933 5737 c-5 -7 -9 -587 -11 -1289 l-3 -1277 48 -22 c41 -19 68
-23 188 -25 117 -2 144 0 165 14 14 9 34 21 45 27 16 9 20 20 19 60 -9 589 -3
840 21 863 4 4 100 8 213 8 187 1 313 11 375 29 48 14 153 58 167 70 8 6 23
15 33 18 25 9 135 99 141 117 4 8 22 33 42 55 44 50 83 134 105 230 5 22 13
49 18 60 9 19 37 254 35 285 -6 64 -34 232 -44 260 -15 41 -47 118 -61 142 -5
10 -9 23 -9 29 0 7 -21 36 -47 65 -27 29 -58 66 -71 83 -13 17 -28 31 -34 31
-6 0 -31 15 -57 33 -72 53 -145 81 -276 109 -27 6 -63 16 -80 23 -42 17 -911
19 -922 2z m948 -95 c118 -26 209 -59 274 -102 58 -38 165 -139 165 -156 0 -6
8 -22 18 -35 20 -27 73 -144 93 -204 8 -26 14 -101 15 -211 1 -95 5 -177 9
-183 4 -7 -1 -18 -11 -25 -9 -7 -14 -18 -11 -24 17 -26 -106 -322 -134 -322
-5 0 -9 -7 -9 -15 0 -8 -6 -15 -12 -15 -7 0 -21 -12 -32 -28 -10 -15 -38 -36
-63 -47 -26 -11 -51 -24 -57 -30 -17 -16 -85 -45 -104 -45 -10 0 -27 -6 -38
-14 -15 -11 -70 -16 -215 -20 -277 -9 -378 -16 -386 -29 -34 -53 -64 -181 -65
-276 -1 -47 -5 -91 -10 -98 -5 -6 -5 -14 0 -17 13 -8 7 -423 -7 -472 -6 -23
-18 -45 -27 -48 -8 -3 -14 -14 -12 -23 3 -16 -8 -18 -110 -21 -100 -2 -113 -1
-118 15 -3 10 -12 32 -19 48 -10 23 -14 110 -14 373 0 188 -3 351 -6 363 -4
11 -1 26 5 34 6 8 9 19 6 24 -7 10 -11 378 -5 396 1 6 -1 25 -5 42 -4 18 -4
38 0 44 4 6 5 75 4 153 -2 77 -2 229 -1 336 1 107 3 283 5 390 2 255 4 258
114 262 42 2 210 2 372 2 255 -2 308 -5 391 -22z"/>
<path d="M7407 5403 c-30 -5 -50 -33 -41 -57 7 -19 21 -21 27 -3 3 9 42 12
158 10 156 -2 232 -15 307 -52 45 -22 132 -103 132 -123 0 -9 6 -23 14 -30 7
-8 17 -34 21 -59 4 -24 14 -64 22 -87 13 -39 13 -53 -1 -121 -9 -43 -16 -92
-16 -109 0 -17 -4 -34 -10 -37 -5 -3 -10 -16 -10 -29 0 -26 -117 -156 -140
-156 -9 0 -24 -6 -35 -13 -53 -36 -119 -49 -276 -57 -88 -4 -163 -10 -166 -13
-10 -11 19 -47 45 -54 43 -12 252 -8 312 7 121 29 232 105 302 206 41 59 49
89 59 217 8 112 7 121 -16 184 -14 36 -25 76 -25 88 0 12 -7 28 -15 35 -8 7
-15 19 -15 27 0 7 -7 16 -15 19 -8 4 -15 16 -15 29 0 22 -21 44 -100 105 -30
23 -61 35 -160 61 -39 10 -300 20 -343 12z"/>
<path d="M7341 5288 c-20 -54 -29 -213 -27 -478 2 -225 5 -290 17 -307 42 -68
50 10 48 468 -1 284 -4 339 -15 339 -8 0 -18 -10 -23 -22z"/>
<path d="M5503 5400 c-17 -7 -23 -18 -23 -39 0 -36 15 -48 29 -24 9 16 26 18
162 16 156 -2 214 -12 306 -55 45 -21 133 -108 133 -133 0 -9 7 -18 15 -21 9
-4 15 -19 15 -36 0 -16 7 -55 16 -85 16 -57 16 -105 -5 -240 -6 -47 -18 -75
-47 -115 -53 -74 -95 -118 -114 -118 -9 0 -25 -7 -36 -15 -10 -8 -26 -15 -34
-15 -8 0 -28 -7 -44 -15 -21 -11 -82 -19 -199 -25 -93 -5 -171 -11 -174 -14
-10 -10 18 -44 46 -55 39 -17 255 -8 336 14 33 8 83 29 110 47 28 17 61 38 75
46 14 8 37 30 50 49 14 19 35 47 47 63 13 15 33 59 44 96 19 61 21 85 16 203
-5 120 -7 134 -26 148 -12 8 -21 25 -21 37 0 13 -7 29 -15 36 -8 7 -15 22 -15
33 0 11 -9 35 -21 51 -29 42 -140 126 -168 126 -12 0 -32 6 -44 14 -40 26
-364 46 -414 26z"/>
<path d="M5438 5237 c-14 -37 -16 -85 -14 -373 1 -295 4 -334 19 -357 10 -15
21 -27 26 -27 5 0 11 26 15 58 8 75 9 683 0 716 -9 38 -27 32 -46 -17z"/>
<path d="M1314 2405 c-1 -5 -16 -53 -33 -105 -80 -252 -95 -341 -88 -530 6
-163 20 -255 58 -378 106 -343 355 -622 681 -762 69 -30 104 -42 223 -77 32
-9 118 -16 241 -20 212 -6 288 4 439 57 117 41 316 140 334 167 3 5 13 14 22
19 46 26 161 141 235 234 139 175 168 213 198 255 15 22 34 45 41 50 7 6 25
29 41 51 16 22 72 96 124 164 52 68 106 138 120 156 59 77 118 153 160 205 25
31 56 72 70 90 14 18 61 77 105 132 44 54 86 107 93 118 19 26 5 42 -30 35
-16 -3 -38 -1 -48 4 -15 8 -23 2 -49 -38 -45 -68 -118 -165 -319 -422 -65 -83
-282 -367 -321 -419 -19 -25 -37 -48 -41 -51 -7 -6 -128 -162 -149 -194 -48
-70 -280 -286 -308 -286 -6 0 -24 -10 -40 -23 -45 -37 -120 -72 -248 -114
-167 -56 -285 -76 -421 -71 -184 8 -422 74 -549 154 -22 13 -55 32 -74 40 -19
9 -57 34 -85 57 -64 53 -236 227 -236 239 0 5 -11 24 -24 41 -40 55 -108 186
-123 240 -37 133 -42 171 -37 342 6 205 8 220 29 315 29 129 55 200 81 216 36
24 190 16 210 -11 16 -22 10 -77 -12 -110 -8 -11 -14 -29 -14 -40 0 -11 -6
-29 -13 -40 -8 -11 -17 -36 -21 -55 -3 -19 -18 -73 -33 -119 -22 -72 -25 -96
-20 -166 12 -166 100 -361 226 -495 23 -24 41 -47 41 -50 0 -7 112 -99 138
-114 12 -6 54 -30 96 -53 41 -24 80 -43 85 -43 6 0 35 -11 66 -25 54 -25 68
-28 215 -45 123 -14 284 1 342 31 10 5 27 9 37 9 11 0 23 5 26 10 3 6 14 10
24 10 53 0 360 202 361 237 0 7 6 16 13 20 15 9 81 85 135 155 18 24 61 78 95
121 34 43 76 97 92 120 17 23 54 71 83 105 28 35 52 66 52 70 0 4 15 24 33 44
17 21 48 58 67 84 19 25 50 65 69 88 18 22 40 55 49 73 8 17 26 37 39 44 14 7
31 26 39 41 8 15 18 28 22 28 5 0 18 18 31 40 17 31 31 42 63 50 50 14 205 8
236 -9 19 -10 28 -9 57 9 41 25 87 78 82 94 -5 14 -440 11 -445 -4 -2 -6 -25
-38 -50 -72 -26 -34 -60 -80 -76 -102 -16 -23 -32 -43 -36 -46 -6 -4 -57 -71
-115 -148 -11 -15 -49 -65 -85 -111 -241 -310 -295 -381 -323 -420 -18 -25
-39 -52 -48 -61 -8 -9 -31 -37 -51 -63 -75 -98 -170 -188 -254 -240 -50 -31
-189 -90 -269 -114 -76 -23 -325 -26 -395 -4 -205 61 -329 132 -449 254 -57
58 -161 196 -161 214 0 3 -11 30 -25 59 -47 98 -77 256 -57 297 5 12 15 52 20
88 15 101 58 200 129 297 14 20 14 25 2 33 -8 5 -26 9 -41 9 -42 0 -41 14 7
61 29 28 44 51 43 64 -3 18 -12 19 -202 20 -124 0 -200 -4 -202 -10z"/>
<path d="M4877 2412 c-9 -2 -24 -16 -32 -32 -8 -15 -42 -63 -76 -105 -33 -42
-73 -94 -87 -115 -65 -91 -310 -407 -334 -431 -16 -15 -28 -31 -28 -37 0 -5
-14 -25 -31 -43 -49 -52 -55 -75 -58 -199 -2 -114 -1 -116 29 -162 36 -55 87
-83 150 -82 83 1 103 21 320 311 219 292 395 520 491 632 43 52 78 100 76 105
-2 6 -25 11 -50 12 -59 1 -69 10 -37 35 63 50 91 81 88 97 -3 15 -22 17 -203
17 -110 0 -208 -1 -218 -3z m276 -117 c15 -9 27 -19 27 -22 0 -12 -38 -71 -67
-105 -18 -21 -44 -57 -59 -80 -14 -24 -32 -47 -38 -53 -12 -10 -195 -247 -266
-344 -19 -26 -54 -72 -78 -102 -23 -30 -46 -58 -50 -64 -4 -5 -19 -26 -32 -45
-67 -93 -129 -140 -187 -140 -18 0 -44 14 -72 38 l-43 37 17 55 c26 87 67 169
92 185 12 8 30 30 39 48 15 29 109 156 149 201 10 10 30 37 45 60 16 23 38 50
49 60 12 11 21 24 21 30 0 6 28 43 61 81 34 39 73 87 87 108 41 61 81 76 188
73 65 -2 98 -8 117 -21z"/>
</g>
</svg>
