<?xml version="1.0" encoding="utf-8"?>
<!-- Generator: Adobe Illustrator 19.2.1, SVG Export Plug-In . SVG Version: 6.00 Build 0)  -->
<svg version="1.1" id="layer" xmlns="http://www.w3.org/2000/svg" xmlns:xlink="http://www.w3.org/1999/xlink" x="0px" y="0px"
	 viewBox="19 268 605 105" style="enable-background:new 0 0 652 652;" xml:space="preserve">
<style type="text/css">
	.st0{fill:#00529C;}
	.st1{fill:#F6A700;}
	.st2{fill:#33AD37;}
	.st3{fill:#E72920;}
	.st4{fill:#FFFFFF;}
	.st5{fill:#F6A900;}
</style>
<rect x="31" y="318.9" class="st0" width="63.6" height="47.7"/>
<rect x="92.5" y="312.3" class="st1" width="66.4" height="48.9"/>
<rect x="25.1" y="274.8" class="st2" width="66.1" height="44.5"/>
<rect x="86.6" y="271.2" class="st3" width="66.4" height="47"/>
<g>
	<path class="st4" d="M89.9,303.2c-0.5-0.5,0.6-3.1,0.5-5l-0.6-10.8c-0.1-1.9-0.6-3.8,0.7-5c1.7-1.7,6-1.6,7.1,0.1
		c1,1.5-0.9,2.7-0.8,4.4l0.4,10.4c0.1,2,1.4,3.5-0.1,5.2C95.2,304.6,91.7,305.3,89.9,303.2 M30.3,324.1l10.4,4.7
		c2,0.9,5.1,1,5.5,1.6c1.5,2.3-0.7,6.8-3.5,7.5c-2.4,0.5-3.4-1.1-5.6-2l-6.1-2.7 M30.9,333.2l-3.8-1.7c-1.8-0.7-3.8,0.2-5-1.1
		c-1.4-1.6,0.2-7.1,2.7-7.8c1.8-0.5,3.5,0.6,5.5,1.5 M158.3,331.5l-10.7,5c-2.1,1-2.9,2.6-5.4,2.2c-2.9-0.5-5.4-4.9-4.2-7.3
		c0.3-0.6,3.4-0.9,5.4-1.8l14.8-7.1 M158.2,322.5c1.9-0.9,3.6-2.1,5.4-1.6c2.5,0.6,4.6,6,3.3,7.6c-1.1,1.4-3.2,0.5-4.9,1.3l-3.8,1.8
		 M59.2,310.2c-0.9-0.8-0.7-1.8-1.5-2.8l-6.6-11.3l-2.6-2.2c-0.2-2.8,4.8-5.3,7.4-3.6c1.1,0.7,1.2,1.5,1.8,2.6l6.7,12.1
		c0.8,1.3,2.3,1.8,2.3,3.3C66.7,310.9,61.3,312,59.2,310.2 M119.7,310.7c0-1.4,1.5-2,2.4-3.2l8.9-13.6c0.7-1.1,0.8-1.9,1.9-2.6
		c2.6-1.6,7.6,0.9,7.3,3.7l-2.6,2.1l-8.8,12.7c-0.7,1-0.6,2-1.5,2.8C125.1,314.4,119.7,313.3,119.7,310.7 M101.8,338.3
		c1.7-1.3,5.1-1.9,8.5-0.5c2,0.8,2.8,3.6,1.4,4.8c-1.4,1.1-2.8,0.2-5.2,0.2c-1.5,0.1-2.9,0.9-4.1,0.1
		C101.2,342.2,99.9,339.8,101.8,338.3 M72.6,338.4c1.7-1.3,5.1-1.9,8.5-0.5c1.9,0.8,2.8,3.6,1.4,4.8c-1.4,1.1-2.8,0.2-5.1,0.2
		c-1.6,0.1-2.9,0.9-4.1,0.1C72.1,342.2,70.7,339.8,72.6,338.4 M50.5,340.9c0,2.6,2.5,4.8,5.5,4.8c3,0,5.5-2.2,5.5-4.8
		c0-11.2,13.6-20.3,30.3-20.4c16.7,0,30.4,9,30.4,20.2c0,2.6,2.5,4.8,5.5,4.8c3,0,5.5-2.2,5.5-4.8c-0.1-16.5-18.6-29.8-41.4-29.8
		C69,311,50.5,324.5,50.5,340.9"/>
	<path class="st5" d="M158.9,322.3c1.9-0.9,3.6-2.1,5.4-1.6c2.5,0.6,4.6,6,3.3,7.6c-1.1,1.4-3.2,0.5-4.9,1.3l-3.8,1.8"/>
	<path class="st0" d="M31,333.4l-3.8-1.7c-1.8-0.7-3.8,0.2-5-1.1c-1.4-1.6,0.2-7.1,2.7-7.8c1.8-0.5,4.2,0.6,6.2,1.5"/>
	<path class="st0" d="M202.9,335c3.6,0,6,3,6,7.2c0,4.3-2.5,7.3-6,7.3h-17.1c-4.9,0-7.6-3.7-7.6-10.3v-52.4c0-5.4,2.5-9,6.1-9
		c3.6,0,6,3.6,6,9V335H202.9z"/>
	<path class="st0" d="M221.2,327.8c1.7,6.2,4.7,9.2,9.3,9.2c2.1,0,4-0.6,6.3-2.1l3.3-2.2c0.7-0.5,1.5-0.7,2.5-0.7
		c2.5,0,4.8,3.1,4.8,6.4c0,6.4-8.4,12.3-17.5,12.3c-12.5,0-21.2-11.2-21.2-27.1c0-16.5,8.5-28.7,20-28.7c10.9,0,19.4,11.7,19.4,26.9
		c0,4.3-1.5,6.1-5.1,6.1H221.2z M236.5,317.2c-1.3-6.7-3.6-9.7-7.5-9.7c-4,0-6.5,3-8.2,9.7H236.5z"/>
	<path class="st0" d="M290.5,341c0,5.5-2.4,9.2-5.9,9.2c-2.8,0-4.7-2-5.9-6.1c-2.9,4.9-5.3,6.5-9.6,6.5c-10.6,0-18.4-12.1-18.4-28.2
		c0-15.5,8-27.6,18.3-27.6c4.1,0,6.6,1.6,9.9,6.1c1.3-4.1,3-5.8,5.8-5.8c3.3,0,5.8,3.5,5.8,7.9V341z M262.4,322.6
		c0,8,3.3,13.4,8.1,13.4c4.8,0,8-5.5,8-13.7c0-7.7-3.3-13.1-8.1-13.1S262.4,314.7,262.4,322.6"/>
	<path class="st0" d="M297.2,304c0-5.4,2.3-8.9,5.9-8.9c2.6,0,4.5,1.8,5.8,5.5c3.3-4.3,5.3-5.8,8-5.8c3.3,0,6,3.6,6,8
		c0,3.7-1.2,5.2-6,7.1c-6.4,2.8-8,4.9-8,10.4v21.3c0,5.2-2.4,8.7-5.8,8.7c-3.5,0-5.9-3.5-5.9-8.7v-1.7V304z"/>
	<path class="st0" d="M325.7,304.2c0-5.5,2.4-9.1,6-9.1c2.6,0,4.3,1.6,5.4,5.4c3.4-4.2,6.2-5.7,10.7-5.7c9.1,0,14.4,7.1,14.4,19.6
		v27.2c0,5.2-2.4,8.7-5.8,8.7c-3.5,0-5.9-3.5-5.9-8.7v-23.5c0-6-2.5-10-6.5-10c-3.7,0-6.6,4-6.6,9.3v24.1c0,5.2-2.4,8.7-5.8,8.7
		c-3.5,0-5.9-3.5-5.9-8.7v-1.7V304.2z"/>
	<path class="st0" d="M382.6,281c0,5.1-3,9.1-6.8,9.1c-3.7,0-6.7-4-6.7-9.1c0-5,3-9,6.7-9C379.5,272,382.6,276,382.6,281
		 M369.8,303.8c0-5.2,2.4-8.7,5.8-8.7c3.5,0,5.9,3.5,5.9,8.7v37.8c0,5.2-2.4,8.7-5.8,8.7c-3.5,0-5.9-3.5-5.9-8.7v-25.3V303.8z"/>
	<path class="st0" d="M389.3,304.2c0-5.5,2.4-9.1,6-9.1c2.6,0,4.3,1.6,5.4,5.4c3.4-4.2,6.2-5.7,10.7-5.7c9.1,0,14.4,7.1,14.4,19.6
		v27.2c0,5.2-2.4,8.7-5.8,8.7c-3.5,0-5.9-3.5-5.9-8.7v-23.5c0-6-2.5-10-6.5-10c-3.7,0-6.6,4-6.6,9.3v24.1c0,5.2-2.4,8.7-5.8,8.7
		c-3.5,0-5.9-3.5-5.9-8.7v-1.7V304.2z"/>
	<path class="st0" d="M441.6,355.3c2.5,1.2,5.2,1.9,7.1,1.9c6.4,0,8.7-3.5,9.3-13.8c-3.2,5.4-5.6,7.1-9.8,7.1
		c-10.4,0-17.9-11.4-17.9-27.4c0-16.1,7.8-28.4,18-28.4c3.9,0,6.3,1.5,9.6,6.1c1.7-4.2,3.2-5.8,5.6-5.8c3.3,0,5.6,3.5,5.6,8.6v41.1
		c0,16.8-7.8,27-20.7,27c-9.8,0-17.5-5.1-17.5-11.5c0-3.7,2.4-6.8,5.4-6.8c0.6,0,1.2,0.1,1.8,0.4L441.6,355.3z M442.1,322.9
		c0,7.6,3.3,13.1,7.9,13.1c4.5,0,7.9-5.6,7.9-13.3c0-7.7-3.3-13.4-7.9-13.4C445.2,309.3,442.1,314.7,442.1,322.9"/>
	<path class="st0" d="M505.7,336l-1.3,6.1c-1.3,6.2-3,8.6-6.3,8.6c-3.3,0-6.1-3.6-6.1-7.8c0-1.3,0.2-2.6,0.6-3.9l14.3-52.5
		c1.5-5.7,4.8-9,9-9c4.2,0,7.4,3.3,9,9l14.3,52.5c0.4,1.4,0.6,2.6,0.6,3.8c0,4.3-2.8,7.9-6.1,7.9c-2.8,0-5-2.5-5.9-6.9L526,336
		H505.7z M515.9,294.7l-6.4,26.9h12.9L515.9,294.7z"/>
	<path class="st0" d="M573.5,313.7c3.3,0,5.6,2.6,5.6,6.6c0,4-2.2,6.7-5.6,6.7h-23.8c-3.3,0-5.6-2.6-5.6-6.7c0-3.9,2.2-6.6,5.6-6.6
		h2.1H573.5z"/>
	<path class="st0" d="M615.5,335c3.6,0,6,3,6,7.2c0,4.3-2.5,7.3-6,7.3h-27.7c-4.6,0-7.7-3.3-7.7-8c0-2,0.6-4.1,1.6-5.9l1.3-2.1
		l22.5-40h-18.3c-3.6,0-6-3-6-7.3c0-4.2,2.5-7.2,6-7.2h26.4c4.4,0,7.1,3.1,7.1,8.3c0,1.9-0.7,4.6-1.7,6.2L595.8,335H615.5z"/>
</g>
</svg>
