<?xml version="1.0" standalone="no"?>
<!DOCTYPE svg PUBLIC "-//W3C//DTD SVG 20010904//EN"
 "http://www.w3.org/TR/2001/REC-SVG-20010904/DTD/svg10.dtd">
<svg version="1.0" xmlns="http://www.w3.org/2000/svg"
 width="300.000000pt" height="81.000000pt" viewBox="0 57 300.000000 81.000000"
 preserveAspectRatio="xMidYMid meet">
<metadata>
Created by potrace 1.10, written by Peter Selinger 2001-2011
</metadata>
<g transform="translate(0.000000,201.000000) scale(0.050000,-0.050000)"
fill="#000000" stroke="none">
<path d="M509 2790 c-37 -38 -76 -70 -89 -70 -99 0 -220 -142 -220 -260 -1
-44 -23 -102 -60 -158 -130 -192 -131 -374 -1 -542 30 -38 60 -105 67 -147 20
-128 138 -253 238 -253 19 0 67 -22 108 -50 112 -76 239 -59 333 45 33 36 35
94 30 726 l-5 688 -80 45 c-126 71 -239 63 -321 -24z m240 -55 c-1 -57 22 -51
34 9 13 66 51 6 65 -104 l15 -110 -64 65 c-71 73 -129 91 -65 20 129 -142 117
-264 -38 -376 -88 -64 -244 -83 -292 -35 -13 13 -29 18 -36 11 -23 -23 110
-75 192 -75 209 0 338 -156 211 -256 l-49 -39 50 -47 c37 -34 49 -63 43 -102
-4 -30 -1 -50 8 -44 37 23 5 -257 -33 -284 -54 -40 -158 -35 -213 10 -57 47
-48 58 65 80 66 12 79 20 53 31 -20 9 -65 9 -100 2 -185 -39 -223 -36 -273 17
l-49 52 93 0 c104 0 147 45 125 132 -16 64 -49 61 -45 -4 5 -70 -46 -103 -120
-77 -81 28 -92 151 -17 200 46 31 48 36 21 76 -81 115 -29 155 139 104 163
-49 232 -140 150 -198 -31 -21 -35 -33 -17 -44 29 -18 98 59 98 109 0 93 -133
176 -356 222 -130 27 -164 56 -164 142 0 110 87 137 305 97 202 -37 333 64
225 173 -51 51 -190 67 -250 28 -20 -13 2 -15 70 -7 89 10 105 6 148 -40 87
-93 34 -120 -207 -103 -241 17 -231 12 -210 103 27 120 120 197 237 197 54 0
94 7 89 15 -5 8 -22 15 -38 15 -45 0 -34 27 26 65 86 54 175 39 174 -30z m101
-546 c1 -148 4 -144 -71 -81 -32 27 -68 52 -81 56 -12 4 12 43 55 87 95 97 95
97 97 -62z m-630 -125 c48 -27 59 -44 50 -79 -6 -25 -3 -61 8 -81 22 -41 -44
-135 -80 -113 -66 41 -120 268 -85 361 12 30 16 29 30 -10 9 -24 44 -59 77
-78z"/>
<path d="M630 1620 c-32 -14 -25 -17 36 -19 42 0 94 -10 115 -22 27 -14 39
-14 39 1 0 45 -120 70 -190 40z"/>
<path d="M1050 2814 l-80 -45 -5 -692 -6 -692 71 -63 c89 -78 176 -81 278 -12
41 27 89 50 108 50 104 0 244 157 244 273 0 34 14 74 31 88 132 109 158 370
54 537 -36 58 -65 130 -65 160 0 95 -83 225 -173 271 -45 23 -114 70 -155 106
-90 79 -185 85 -302 19z m215 -49 c110 -60 194 -130 181 -152 -7 -11 0 -15 19
-8 41 16 61 -35 26 -64 -29 -24 -100 48 -80 81 5 8 -18 34 -51 58 -45 32 -57
35 -48 11 10 -25 1 -29 -55 -18 -83 16 -90 22 -61 51 13 13 24 33 23 45 0 12
-13 4 -29 -17 -16 -21 -41 -32 -59 -25 -17 6 -31 10 -31 7 4 -54 58 -173 59
-129 1 64 43 72 150 27 141 -59 142 -281 1 -239 -81 24 -103 46 -50 48 28 1
68 10 90 20 27 13 7 15 -65 7 -100 -11 -105 -9 -108 35 -2 47 -2 47 -11 2 -5
-24 -28 -59 -52 -77 -28 -21 -32 -29 -10 -22 43 15 68 -18 85 -116 l14 -80
-87 84 -86 85 -6 180 c-6 148 -1 181 22 181 16 0 55 13 87 30 69 36 55 37 132
-5z m315 -222 c0 -10 5 -45 12 -79 14 -67 -120 -136 -154 -80 -36 58 29 99 80
51 22 -21 22 -17 1 18 -22 36 -22 49 0 75 28 35 61 42 61 15z m-240 -193 c18
-17 42 -30 53 -30 12 0 36 -17 55 -38 34 -37 32 -39 -77 -64 -128 -28 -137
-23 -167 99 l-21 87 62 -12 c34 -7 77 -26 95 -42z m220 -21 c0 -43 -54 -59
-93 -26 -30 24 -27 28 25 40 32 7 60 13 63 15 3 1 5 -12 5 -29z m-437 -64 c93
-91 94 -95 12 -125 -36 -13 -54 -28 -41 -33 13 -5 43 1 67 13 59 32 66 17 43
-91 -17 -80 -15 -103 18 -157 21 -34 38 -68 38 -76 0 -25 -129 30 -165 70 -34
39 -35 39 -35 -24 0 -39 8 -59 20 -52 29 18 135 -8 168 -41 38 -38 18 -135
-26 -119 -17 7 -59 17 -92 21 -48 7 -45 3 18 -18 44 -14 84 -42 91 -61 7 -19
21 -32 30 -28 10 3 30 -23 44 -58 46 -112 -87 -179 -225 -114 l-68 33 3 467
c2 258 7 468 13 468 5 0 44 -34 87 -75z m585 -76 l72 -131 -72 -169 c-81 -189
-78 -186 -129 -124 -54 64 -51 69 76 187 l115 106 -80 1 c-133 2 -195 120
-121 232 42 64 52 57 139 -102z m-183 -46 c22 -87 17 -90 -77 -51 -43 18 -100
42 -128 53 -48 19 -47 21 40 45 125 35 145 29 165 -47z m-125 -58 c135 -46
133 -54 -23 -92 -166 -40 -153 -45 -142 63 8 71 16 84 42 73 18 -7 74 -27 123
-44z m250 -115 c-84 -72 -110 -84 -110 -49 0 38 98 119 144 119 41 -1 38 -7
-34 -70z m-245 -74 c-108 -109 -131 -111 -155 -15 -11 48 103 104 240 117 11
1 -27 -45 -85 -102z m120 39 c-15 -64 -60 -109 -118 -120 -46 -9 -43 -3 35 77
101 103 97 101 83 43z m-145 -215 c-48 -44 -89 -77 -93 -74 -19 19 26 100 71
124 98 53 109 30 22 -50z m180 50 c34 -41 17 -55 -46 -39 -33 8 -48 23 -41 41
15 37 56 36 87 -2z m60 -82 c0 -20 -90 -188 -100 -188 -23 0 -77 198 -56 205
24 8 156 -6 156 -17z m-170 -81 c39 -94 32 -99 -70 -47 -81 41 -83 44 -49 81
52 57 85 48 119 -34z m10 -149 c-84 -24 -115 -20 -125 17 -6 19 -17 52 -26 72
-13 31 1 29 93 -19 102 -52 105 -56 58 -70z"/>
<path d="M1103 1560 c39 -49 79 -104 89 -121 15 -27 25 -28 68 -6 37 20 41 26
15 27 -19 0 -35 14 -35 31 0 18 -10 25 -22 18 -12 -8 -59 21 -104 64 l-82 77
71 -90z"/>
<path d="M2256 2436 c-425 -113 -433 -784 -10 -786 201 0 234 16 234 113 0 75
-3 81 -45 68 -211 -64 -315 -13 -315 153 0 238 197 379 403 288 34 -15 107 95
86 130 -31 50 -224 69 -353 34z"/>
<path d="M2891 2419 c-400 -200 -342 -817 73 -771 240 26 396 215 396 481 0
266 -231 409 -469 290z m249 -159 c88 -88 34 -348 -88 -422 -143 -87 -252 -20
-252 154 0 217 219 389 340 268z"/>
<path d="M4611 2430 c-194 -69 -297 -210 -308 -418 -13 -254 78 -352 327 -352
221 1 220 0 267 188 23 91 47 180 54 199 11 28 -2 33 -86 33 l-99 0 -28 -135
c-46 -221 -258 -189 -258 38 0 238 214 385 423 289 33 -15 108 94 87 128 -33
53 -263 71 -379 30z"/>
<path d="M5363 2435 c-235 -76 -383 -469 -247 -654 209 -282 652 -101 696 284
33 286 -174 457 -449 370z m224 -171 c123 -137 -12 -464 -192 -464 -122 0
-179 117 -135 280 48 177 237 283 327 184z"/>
<path d="M3502 2076 c-48 -201 -92 -378 -97 -392 -8 -20 13 -25 86 -20 l97 6
52 234 c28 128 57 240 64 247 14 14 95 -153 177 -367 48 -123 50 -126 118
-120 l69 6 82 340 c46 187 89 360 98 385 14 43 9 45 -82 45 l-97 0 -52 -235
-51 -235 -56 125 c-131 295 -159 334 -243 341 l-77 6 -88 -366z"/>
<path d="M5691 1575 c-39 -57 -71 -116 -71 -130 0 -35 53 -31 67 5 7 17 30 30
52 30 23 0 41 -13 41 -30 0 -16 14 -30 32 -30 26 0 30 18 20 111 -19 185 -42
193 -141 44z"/>
<path d="M5908 1625 c-6 -30 -19 -84 -28 -120 -17 -64 7 -108 39 -72 16 17 61
186 61 226 0 46 -60 18 -72 -34z"/>
<path d="M5520 1460 c0 -30 10 -41 35 -36 19 4 35 20 35 36 0 16 -16 32 -35
36 -25 5 -35 -6 -35 -36z"/>
</g>
</svg>
