<svg version="1.1" id="Layer_1" xmlns="http://www.w3.org/2000/svg" xmlns:xlink="http://www.w3.org/1999/xlink" x="0px"
    y="0px" width="100%" viewBox="0 0 496 496" enable-background="new 0 0 496 496" xml:space="preserve">
    <path fill="#000000" opacity="1.000000" stroke="none" d="
M86.114273,363.976807 
	C60.954269,348.873169 46.366051,326.489960 39.405937,298.912445 
	C30.170446,262.319366 30.684340,225.922577 44.891174,190.623306 
	C57.571598,159.116653 79.484169,136.311096 113.027229,127.549179 
	C146.312561,118.854568 178.181473,122.507553 206.435257,143.975601 
	C221.137283,155.146652 231.208023,169.983139 237.952301,186.990082 
	C245.582108,206.230011 249.119446,226.243530 248.371765,247.032501 
	C248.190033,252.085587 246.571640,253.440506 241.618881,253.427444 
	C181.137665,253.268066 120.655914,253.320511 60.174290,253.319183 
	C52.929306,253.319016 52.942249,253.321808 53.102028,260.464447 
	C53.614479,283.373199 58.693768,305.074127 71.394249,324.388367 
	C86.509018,347.374207 108.012367,359.575867 135.639130,360.726501 
	C150.595444,361.349396 165.272827,360.038605 179.204224,354.133942 
	C201.656784,344.617737 214.374344,326.453644 222.702286,304.527588 
	C224.176498,300.646240 225.279251,296.620453 226.470062,292.636414 
	C226.964584,290.981964 227.438965,289.489288 229.413742,289.015167 
	C231.300522,288.562134 242.608032,288.958069 245.663666,289.847382 
	C244.954468,298.444458 242.294891,306.649811 239.110901,314.608704 
	C224.494537,351.144684 197.687057,371.955505 158.436310,376.388611 
	C137.311844,378.774475 116.542831,377.721497 96.644005,369.377075 
	C93.128075,367.902710 89.826706,365.916626 86.114273,363.976807 
M106.487381,148.048264 
	C86.397560,157.757965 72.443924,173.231415 63.670074,193.586609 
	C58.425812,205.753220 55.659771,218.522522 53.812317,231.595001 
	C53.211887,235.843613 54.322495,236.826630 58.297470,236.820114 
	C113.432762,236.729706 168.568268,236.712753 223.703537,236.798492 
	C227.614517,236.804596 229.103333,235.650101 228.757858,231.642029 
	C227.839905,220.991821 225.900604,210.552322 222.605026,200.398193 
	C205.627365,148.087860 154.644043,127.166924 106.487381,148.048264 
z" />
    <path fill="#000000" opacity="1.000000" stroke="none" d="
M302.389771,150.641449 
	C322.161011,177.000809 341.711670,203.079971 361.689880,229.729477 
	C368.601227,220.587006 375.012909,212.127487 381.401306,203.650452 
	C399.148376,180.101257 416.919800,156.570221 434.581665,132.957230 
	C436.663513,130.173935 438.895416,128.703781 442.481537,128.846786 
	C448.265015,129.077408 454.064423,128.908752 459.657013,128.908752 
	C460.843658,131.986450 458.835999,133.207825 457.710419,134.687378 
	C430.883514,169.950089 404.072845,205.225510 377.088013,240.367142 
	C374.661194,243.527557 374.868134,245.446594 377.153137,248.470306 
	C406.787415,287.685425 436.290497,326.999725 465.820099,366.293976 
	C466.893982,367.722961 468.315582,368.987152 468.431274,371.737610 
	C460.636597,372.438965 452.930634,372.416534 445.252167,371.724609 
	C442.994507,371.521149 442.056152,368.955841 440.796906,367.233490 
	C415.719879,332.933899 390.671906,298.613068 365.584290,264.321228 
	C364.437195,262.753296 363.620056,260.810425 361.160034,259.777557 
	C354.617432,268.475922 348.018616,277.213837 341.456787,285.979370 
	C320.891693,313.451172 300.300293,340.903473 279.846313,368.457764 
	C277.798920,371.215912 275.540253,372.317291 272.269867,372.145203 
	C266.562683,371.844940 260.778595,372.600281 254.011185,371.365753 
	C258.474030,365.264343 262.228210,360.030914 266.085449,354.874573 
	C292.628113,319.392426 319.154449,283.897919 345.815186,248.504654 
	C348.168579,245.380432 348.005676,243.299316 345.679535,240.292191 
	C319.170837,206.023575 292.779419,171.664154 266.395172,137.299408 
	C264.631866,135.002716 262.297424,133.006332 261.382874,129.189163 
	C269.533508,129.189163 277.261353,129.113556 284.985657,129.245697 
	C286.774170,129.276306 287.697937,131.012543 288.696869,132.349564 
	C293.184357,138.355911 297.677887,144.357773 302.389771,150.641449 
z" />
</svg>