<?xml version="1.0" standalone="no"?>
<!DOCTYPE svg PUBLIC "-//W3C//DTD SVG 20010904//EN" "http://www.w3.org/TR/2001/REC-SVG-20010904/DTD/svg10.dtd">
<svg version="1.0" xmlns="http://www.w3.org/2000/svg" width="300.000000pt" height="300.000000pt"
    viewBox="0 0 300.000000 300.000000" preserveAspectRatio="xMidYMid meet">

    <g transform="translate(0.000000,300.000000) scale(0.100000,-0.100000)" fill="#000000" stroke="none">
        <path d="M1035 2893 c23 -59 355 -1016 353 -1018 -2 -2 -30 -16 -63 -33 -76
-38 -136 -100 -172 -177 -24 -51 -28 -73 -28 -145 0 -76 4 -93 32 -151 19 -38
52 -84 78 -108 l44 -41 -48 -57 c-82 -99 -192 -184 -321 -248 l-71 -36 -34 25
c-48 37 -85 117 -85 185 0 31 4 62 8 68 4 7 36 26 70 43 137 69 220 229 193
376 -14 74 -65 167 -115 210 -22 19 -65 47 -96 62 -49 24 -66 27 -160 27 -95
0 -111 -3 -162 -28 -74 -36 -144 -107 -177 -177 -23 -48 -26 -68 -26 -155 0
-107 12 -143 73 -223 l25 -33 -56 -117 c-79 -165 -108 -270 -114 -413 -10
-209 41 -354 167 -472 125 -119 280 -174 460 -164 163 10 297 54 610 202 349
165 421 190 684 230 275 43 395 93 503 208 135 147 173 330 107 526 l-25 74
23 46 c19 38 23 63 23 141 0 84 -3 102 -28 152 -35 71 -128 159 -194 184 -26
10 -49 18 -51 19 -1 1 330 957 355 1022 4 11 -151 13 -892 13 -850 0 -897 -1
-890 -17z m1555 -145 c-1 -2 -69 -199 -153 -438 -133 -382 -155 -435 -174
-438 -19 -3 -40 33 -179 311 l-158 315 -159 -311 c-87 -172 -160 -314 -162
-315 -2 -2 -12 -1 -23 2 -15 5 -39 64 -107 259 -48 138 -116 334 -151 435
l-63 182 664 0 c366 0 665 -1 665 -2z m-571 -795 l84 -169 -36 -48 c-20 -26
-44 -69 -54 -96 l-18 -50 -66 0 -66 0 -12 42 c-15 50 -34 82 -74 125 l-29 31
88 170 c49 94 91 169 94 167 3 -2 43 -79 89 -172z m-1294 -258 c143 -83 128
-297 -25 -363 -19 -8 -60 -15 -91 -15 -150 -1 -253 156 -189 288 24 50 71 93
122 112 49 19 131 9 183 -22z m833 23 c85 -21 152 -111 152 -204 0 -46 -46
-128 -88 -158 -72 -50 -181 -50 -252 -1 -88 61 -114 192 -55 277 20 28 49 52
84 71 60 30 89 33 159 15z m923 -22 c21 -15 51 -45 66 -68 24 -35 28 -52 28
-108 0 -56 -4 -73 -27 -108 -74 -111 -239 -129 -331 -36 -44 44 -61 84 -61
144 -1 92 59 171 152 201 47 15 130 3 173 -25z m-458 -316 c23 -65 104 -148
182 -185 54 -27 70 -30 160 -30 81 0 109 4 147 22 l48 22 7 -27 c5 -15 8 -63
8 -107 0 -65 -5 -90 -27 -137 -52 -113 -151 -187 -293 -222 -33 -9 -134 -27
-223 -40 -200 -31 -337 -75 -563 -181 -389 -183 -518 -230 -654 -241 -242 -20
-434 127 -465 358 -20 140 9 279 98 471 31 66 46 87 61 87 41 0 46 -8 43 -64
-4 -58 17 -144 49 -207 26 -52 106 -131 168 -166 l52 -31 50 19 c194 74 378
206 499 356 l63 78 81 6 c146 10 257 82 317 205 l32 64 71 0 71 0 18 -50z" />
    </g>
</svg>