<?xml version="1.0" encoding="UTF-8"?>
<!DOCTYPE svg PUBLIC "-//W3C//DTD SVG 1.1//EN" "http://www.w3.org/Graphics/SVG/1.1/DTD/svg11.dtd">
<svg xmlns="http://www.w3.org/2000/svg" version="1.1" width="50px" height="57px"
    style="shape-rendering:geometricPrecision; text-rendering:geometricPrecision; image-rendering:optimizeQuality; fill-rule:evenodd; clip-rule:evenodd"
    xmlns:xlink="http://www.w3.org/1999/xlink">
    <g>
        <path style="opacity:0.982" fill="#039902"
            d="M 22.5,-0.5 C 23.8333,-0.5 25.1667,-0.5 26.5,-0.5C 33.9053,4.22561 41.572,8.55894 49.5,12.5C 49.5,22.8333 49.5,33.1667 49.5,43.5C 41.572,47.4411 33.9053,51.7744 26.5,56.5C 25.1667,56.5 23.8333,56.5 22.5,56.5C 15.0947,51.7744 7.42802,47.4411 -0.5,43.5C -0.5,33.1667 -0.5,22.8333 -0.5,12.5C 7.66117,8.92273 15.3278,4.5894 22.5,-0.5 Z" />
    </g>
    <g>
        <path style="opacity:1" fill="#f8fcf8"
            d="M 11.5,13.5 C 13.6547,13.372 15.6547,13.872 17.5,15C 21.9562,21.1249 26.7895,26.9583 32,32.5C 32.3333,26.8333 32.6667,21.1667 33,15.5C 34.194,13.4746 35.694,13.1413 37.5,14.5C 38.8333,23.5 38.8333,32.5 37.5,41.5C 35.4248,42.7615 33.4248,42.5948 31.5,41C 26.2895,35.4583 21.4562,29.6249 17,23.5C 16.6667,28.8333 16.3333,34.1667 16,39.5C 14.5219,42.9931 12.5219,43.3264 10,40.5C 9.33333,32.1667 9.33333,23.8333 10,15.5C 10.7172,14.9558 11.2172,14.2891 11.5,13.5 Z" />
    </g>
</svg>